<?xml version="1.0" standalone="no"?>
<!DOCTYPE svg PUBLIC "-//W3C//DTD SVG 1.1//EN" "http://www.w3.org/Graphics/SVG/1.1/DTD/svg11.dtd" >
<svg xmlns="http://www.w3.org/2000/svg">
<metadata></metadata>
<defs>
<font id="sinkin_sans400_regular" horiz-adv-x="1443" >
<font-face units-per-em="2048" ascent="1659" descent="-389" />
<missing-glyph horiz-adv-x="634" />
<glyph horiz-adv-x="2048" />
<glyph horiz-adv-x="2048" />
<glyph horiz-adv-x="682" />
<glyph unicode="&#x9;" horiz-adv-x="2048" />
<glyph unicode="&#xa;" horiz-adv-x="2048" />
<glyph unicode="&#xd;" horiz-adv-x="2048" />
<glyph horiz-adv-x="2048" />
<glyph horiz-adv-x="2048" />
<glyph horiz-adv-x="2048" />
<glyph horiz-adv-x="2048" />
<glyph horiz-adv-x="2048" />
<glyph horiz-adv-x="2048" />
<glyph horiz-adv-x="2048" />
<glyph unicode=" "  horiz-adv-x="634" />
<glyph unicode="&#x09;" horiz-adv-x="634" />
<glyph unicode="&#xa0;" horiz-adv-x="634" />
<glyph unicode="!" horiz-adv-x="595" d="M143 150q0 75 40.5 121t113.5 46q75 0 115.5 -45t40.5 -122t-41 -123.5t-115 -46.5q-73 0 -113.5 46.5t-40.5 123.5zM180 1659h236l-51 -1223h-134z" />
<glyph unicode="&#x22;" horiz-adv-x="804" d="M113 1720h211l-52 -612h-108zM481 1720h211l-51 -612h-109z" />
<glyph unicode="#" horiz-adv-x="1462" d="M61 430v184h263l-5 21l101 389l16 20h-217v185h262l-4 20l105 410h172l-105 -410l-14 -20h399l-4 20l105 410h172l-105 -410l-14 -20h213v-185h-264l6 -20l-99 -389l-14 -21h213v-184h-262l4 -20l-104 -410h-172l104 410l18 20h-403l4 -20l-104 -410h-172l104 410l19 20 h-218zM477 614h400l-5 21l101 389l16 20h-405l6 -20l-98 -389z" />
<glyph unicode="$" horiz-adv-x="1478" d="M113 231l149 142q101 -93 191.5 -141.5t193.5 -61.5q3 0 14 -1t13 -1l-10 20v480l10 18q-3 1 -11.5 3t-11.5 3q-15 4 -33.5 9.5t-19.5 5.5q-108 31 -183.5 63.5t-137 78.5t-91.5 108.5t-30 144.5q0 75 30 142.5t88.5 123t154 92.5t216.5 47q23 0 29 2l-10 19v190h163 v-192l-10 -21q4 0 16 -1t15 -1q271 -34 448 -229l-147 -139q-122 147 -301 182q-3 0 -15 1t-16 1l10 -19v-438l-10 -16q3 -1 14.5 -4t14.5 -4q69 -19 82 -23q210 -56 308.5 -162.5t98.5 -246.5q0 -77 -26.5 -145t-82 -127.5t-152.5 -99t-226 -50.5h-31l10 -19v-190h-163v188 l10 21q-23 0 -29 2q-159 14 -296.5 75t-235.5 170zM352 1110q0 -74 66 -121.5t229 -95.5q2 -1 8 -2.5t10.5 -3t6.5 -2.5l-8 22v396l10 22q-6 -2 -29 -2q-143 -14 -218 -74t-75 -139zM817 168q4 0 16 1t15 1q145 18 217 76.5t72 146.5q0 76 -64.5 139.5t-204.5 102.5l-22 6 l-27 6l8 -18v-441z" />
<glyph unicode="%" horiz-adv-x="1830" d="M61 1212q0 133 39.5 237.5t122.5 168t197 63.5q115 0 197.5 -63.5t121.5 -167.5t39 -238q0 -207 -91.5 -332.5t-266.5 -125.5q-174 0 -266.5 126t-92.5 332zM231 1212q0 -292 189 -292q188 0 188 292q0 301 -188 301q-189 0 -189 -301zM537 -20l593 1699h173l-594 -1699 h-172zM1053 436q0 133 40 238t122.5 168t195.5 63q116 0 198.5 -63.5t121 -167.5t38.5 -238t-38 -235.5t-120.5 -162.5t-199.5 -61t-199 61t-120.5 162.5t-38.5 235.5zM1223 436q0 -140 46.5 -216.5t141.5 -76.5q188 0 188 293q0 146 -43.5 224.5t-144.5 78.5 q-188 0 -188 -303z" />
<glyph unicode="&#x26;" horiz-adv-x="1536" d="M113 426q0 80 32.5 154t90.5 134.5t129 109.5t157 91l-22 9q-43 51 -57.5 68t-44.5 59.5t-40.5 70t-21 70.5t-10.5 90q0 164 116 278.5t279 114.5q166 0 282.5 -114.5t116.5 -278.5q0 -77 -24.5 -141t-73 -115t-106 -89.5t-138.5 -78.5l21 -10q17 -19 198.5 -227.5 t192.5 -221.5l6 -20q21 30 33 82t6 88h197v-21q0 -68 -33.5 -150.5t-81.5 -137.5l16 -7l203 -233h-236l-92 106l-2 19q-79 -73 -205 -111.5t-278 -38.5q-177 0 -314 52t-216.5 155.5t-79.5 243.5zM313 426q0 -88 53.5 -149t144 -89t212.5 -28q240 0 360 106l-20 8l-428 492 l-4 20q-136 -76 -187 -116q-130 -105 -131 -244zM506 1276q0 -40 18 -81t37.5 -66.5t54.5 -66.5t48 -58l6 -23q55 27 89 45.5t72.5 46.5t59.5 55.5t35 66.5t14 85q0 88 -63 150.5t-152 62.5q-92 0 -155.5 -62.5t-63.5 -154.5z" />
<glyph unicode="'" horiz-adv-x="436" d="M113 1720h211l-52 -612h-108z" />
<glyph unicode="(" horiz-adv-x="563" d="M82 733q0 574 303 1125h158q-262 -533 -262 -1098q0 -634 262 -1151h-158q-159 291 -231 561t-72 563z" />
<glyph unicode=")" horiz-adv-x="563" d="M20 -391q263 519 263 1151q0 563 -263 1098h158q303 -551 303 -1125q0 -293 -72.5 -563t-232.5 -561h-156z" />
<glyph unicode="*" horiz-adv-x="1175" d="M113 1221l364 63l-301 215l86 109l277 -246l-21 369h139l-20 -371l276 248l86 -111l-301 -213l365 -63l-31 -138l-352 103l174 -324l-125 -61l-141 342l-144 -342l-125 61l179 322l-355 -99z" />
<glyph unicode="+" horiz-adv-x="1382" d="M184 737v185h426l-10 20v436h184v-436l-10 -20h424v-185h-424l10 -20v-434h-184v434l10 20h-426z" />
<glyph unicode="," horiz-adv-x="579" d="M123 150q0 76 40 121.5t113 45.5q75 0 117.5 -45.5t42.5 -121.5q0 -50 -22 -107l-170 -393l-121 49l113 262l26 21q-63 0 -101 47.5t-38 120.5z" />
<glyph unicode="-" horiz-adv-x="808" d="M61 573v185h687v-185h-687z" />
<glyph unicode="." horiz-adv-x="575" d="M123 150q0 76 40 121.5t113 45.5q75 0 115.5 -45t40.5 -122t-41 -123.5t-115 -46.5q-73 0 -113 46.5t-40 123.5z" />
<glyph unicode="/" horiz-adv-x="479" d="M-143 -102l594 1863h172l-594 -1863h-172z" />
<glyph unicode="0" horiz-adv-x="1546" d="M113 819q0 253 76 446t226.5 303.5t356.5 110.5q158 0 283.5 -63t208.5 -177t126.5 -272t43.5 -348q0 -254 -73.5 -441t-224 -292.5t-364.5 -105.5q-212 0 -361.5 105.5t-223.5 292.5t-74 441zM313 819q0 -113 15 -208.5t49 -179.5t86 -142t130.5 -91.5t178.5 -33.5 q124 0 214.5 48.5t143.5 138t78 205.5t25 263q0 94 -9.5 175.5t-30.5 159t-57 138.5t-85.5 107.5t-120 71t-156.5 24.5q-99 0 -177.5 -35t-131 -96t-87.5 -147t-50 -184.5t-15 -213.5z" />
<glyph unicode="1" horiz-adv-x="821" d="M41 1255l405 404h170v-1659h-194v1262l14 168h-4l-102 -127l-168 -168z" />
<glyph unicode="2" horiz-adv-x="1394" d="M113 272q-2 121 40.5 228.5t139 198t237.5 139.5l224 77q178 62 252.5 135t74.5 175q0 54 -19.5 100.5t-60.5 85.5t-114.5 61.5t-173.5 22.5q-276 0 -430 -211l-144 143q211 252 576 252q118 0 214.5 -26t161 -69t108.5 -102t63.5 -123t19.5 -134q0 -164 -99.5 -282.5 t-324.5 -197.5l-264 -92q-140 -50 -212.5 -151.5t-72.5 -247.5q0 -8 1 -24t1 -23l-20 -23h989v-184h-1163z" />
<glyph unicode="3" d="M113 231l145 144q172 -211 449 -211q111 0 196 27t132.5 71.5t71 95t23.5 103.5q0 131 -97 213t-288 100q-31 3 -95 5t-112 3h-49v179q191 2 246 8q98 11 171 40t113 69t58.5 83t18.5 90q0 50 -20 91t-63 76t-121.5 55t-184.5 20q-270 0 -435 -199l-143 146 q210 239 576 239q155 0 273 -36t186 -97.5t101 -135.5t33 -159q0 -122 -76.5 -215.5t-211.5 -152.5v-4q154 -56 237.5 -164.5t83.5 -253.5q0 -71 -21 -138t-69 -130t-119 -110t-177.5 -75t-237.5 -28q-370 0 -594 251z" />
<glyph unicode="4" horiz-adv-x="1474" d="M82 389v148l936 1122h160v-1065l-11 -21h226v-184h-226l11 -20v-369h-195v369l10 20h-911zM330 573h663l-10 21v582l12 186h-4l-102 -133l-477 -570l-82 -81v-5z" />
<glyph unicode="5" horiz-adv-x="1472" d="M113 276l137 138q92 -130 206.5 -191t264.5 -61q91 0 165.5 21.5t124.5 58t84 86t49 103t15 110.5q0 71 -24.5 136.5t-72.5 121.5t-131 89.5t-190 33.5q-283 0 -452 -205l-131 129l96 813h987v-184h-842l21 -21l-37 -287l-35 -172l4 -2q94 61 185.5 87t203.5 26 q123 0 225.5 -30.5t174.5 -83t122 -124.5t73.5 -154.5t23.5 -172.5q0 -89 -22.5 -170t-73 -153.5t-123.5 -125.5t-181 -84t-239 -31q-205 0 -346 68.5t-262 230.5z" />
<glyph unicode="6" horiz-adv-x="1533" d="M113 819q4 202 58 365.5t146 271t217 165.5t271 58q187 0 318.5 -59.5t236.5 -185.5l-143 -146q-146 207 -416 207q-151 0 -262 -81t-168 -222.5t-60 -327.5h4q74 110 204.5 176t281.5 66q153 0 274 -46t196 -125.5t113.5 -180t36.5 -213.5q-2 -86 -26.5 -166.5 t-75.5 -153.5t-124.5 -126.5t-180 -85.5t-234.5 -32q-218 0 -371 106t-226.5 294t-69.5 442zM354 539q-2 -67 25 -132.5t78 -121t135.5 -89.5t189.5 -34q101 0 186 33.5t139.5 88t85 121.5t32.5 136q1 67 -25 132.5t-76 122t-135.5 91.5t-191.5 35q-102 0 -188 -35t-140 -91 t-84 -123t-31 -134z" />
<glyph unicode="7" horiz-adv-x="1351" d="M61 1475v184h1229v-162l-450 -590q-101 -131 -142 -273.5t-41 -346.5v-287h-194v299q0 231 48 390.5t169 318.5l248 323l127 139v5h-994z" />
<glyph unicode="8" horiz-adv-x="1540" d="M113 469q0 144 83 249t236 161v4q-260 122 -260 356q0 69 20 131.5t65.5 119.5t113 98.5t169 66t226.5 24.5q155 0 274.5 -37t189.5 -100t105 -139.5t35 -163.5q0 -120 -67.5 -206t-194.5 -150v-4q153 -60 236 -164t83 -246q0 -70 -24.5 -138.5t-77.5 -132.5t-128.5 -112 t-185.5 -77t-241 -29t-241 29t-185.5 77t-128.5 112t-77.5 132.5t-24.5 138.5zM313 473q0 -53 28.5 -106t82.5 -99t144.5 -75t201.5 -29t201 29t144 75t83 99.5t29 105.5q0 133 -126 227.5t-333 94.5q-205 0 -330 -94.5t-125 -227.5zM373 1227q0 -46 24.5 -92.5t70.5 -87.5 t124.5 -67t175.5 -26q98 0 177 26t126 67t71.5 87.5t24.5 92.5q0 50 -21 95t-65 84.5t-123.5 63t-185.5 23.5t-186 -23.5t-125 -63t-66.5 -84.5t-21.5 -95z" />
<glyph unicode="9" horiz-adv-x="1533" d="M113 1116q1 86 25.5 166.5t75.5 153t124.5 126.5t180.5 85.5t235 31.5q218 0 371 -105.5t226.5 -293.5t69.5 -442q-4 -202 -57 -365.5t-144 -271.5t-214.5 -166t-268.5 -58q-190 0 -328.5 60.5t-248.5 189.5l145 146q152 -211 432 -211q227 0 354 173t132 458h-4 q-74 -110 -204.5 -176t-281.5 -66q-153 0 -274 46t-196 125.5t-113.5 180t-36.5 213.5zM309 1116q-1 -67 25 -132.5t76 -122t135.5 -91.5t191.5 -35q102 0 188 35t140 91t84 123t31 134q2 67 -25 132.5t-78 121t-135.5 89.5t-189.5 34q-101 0 -186 -33.5t-139.5 -88 t-85 -121.5t-32.5 -136z" />
<glyph unicode=":" horiz-adv-x="595" d="M143 150q0 75 40.5 121t113.5 46q75 0 115.5 -45t40.5 -122t-41 -123.5t-115 -46.5q-73 0 -113.5 46.5t-40.5 123.5zM143 1079q0 76 40.5 122t113.5 46q75 0 115.5 -45.5t40.5 -122.5t-41 -123.5t-115 -46.5q-73 0 -113.5 46.5t-40.5 123.5z" />
<glyph unicode=";" horiz-adv-x="600" d="M143 150q0 75 40.5 121t113.5 46q75 0 117.5 -45.5t42.5 -121.5q0 -48 -23 -107l-170 -393l-121 49l113 262l27 21q-63 0 -101.5 47.5t-38.5 120.5zM143 1079q0 76 40.5 122t113.5 46q75 0 115.5 -45.5t40.5 -122.5t-41 -123.5t-115 -46.5q-73 0 -113.5 46.5t-40.5 123.5 z" />
<glyph unicode="&#x3c;" horiz-adv-x="1036" d="M113 829l606 605l133 -134l-379 -378l-115 -93l115 -94l379 -377l-133 -133z" />
<glyph unicode="=" horiz-adv-x="1382" d="M184 512v184h1014v-184h-1014zM184 963v184h1014v-184h-1014z" />
<glyph unicode="&#x3e;" horiz-adv-x="1036" d="M184 358l381 379l113 92l-115 95l-379 376l133 134l607 -605l-607 -604z" />
<glyph unicode="?" horiz-adv-x="1308" d="M113 1425q212 254 561 254q96 0 181 -25.5t146.5 -68t106 -98t66.5 -116.5t22 -122q0 -132 -77 -234t-201 -151l-78 -30q-85 -33 -126 -73.5t-55 -96.5t-14 -160v-68h-194v86q0 79 7 135.5t26.5 112t55.5 96.5t94.5 79.5t141.5 70.5l47 18q92 36 132 87.5t40 127.5 q0 91 -93 168.5t-228 77.5q-136 0 -235.5 -52.5t-176.5 -158.5zM393 150q0 75 40.5 121t113.5 46q75 0 115 -45t40 -122t-41 -123.5t-114 -46.5t-113.5 46.5t-40.5 123.5z" />
<glyph unicode="@" horiz-adv-x="2027" d="M143 858q0 177 73.5 339.5t195.5 279t286.5 185.5t339.5 69q169 0 324.5 -64t270 -173t183 -262t68.5 -323q0 -79 -21.5 -160.5t-63 -156t-98 -133t-132.5 -93t-160 -34.5q-161 0 -229 129h-4q-63 -63 -142.5 -97t-161.5 -34q-110 0 -188 58.5t-113.5 147.5t-35.5 197 q0 102 38 205t103 186t160.5 135t201.5 52q61 0 120 -30t93 -77h4l25 84h178l-135 -526q-25 -95 -25 -162q0 -50 38 -84.5t89 -34.5q61 0 112 27.5t85.5 71.5t58.5 100.5t34.5 114t10.5 112.5q0 138 -54.5 265t-146 220t-218 149t-265.5 56q-200 0 -371.5 -101t-271.5 -273 t-100 -373q0 -158 57 -300t156 -245t239 -164t298 -61q205 0 395 127l102 -101q-102 -74 -231 -116.5t-256 -42.5q-193 0 -362.5 68.5t-291 188t-192 289.5t-70.5 365zM717 760q0 -275 190 -275q70 0 127.5 41t91.5 106t52 139t18 147q0 245 -180 245q-66 0 -124.5 -40 t-95.5 -101t-58 -130.5t-21 -131.5z" />
<glyph unicode="A" horiz-adv-x="1726" d="M31 0l729 1659h207l729 -1659h-213l-176 399l10 21h-907l10 -21l-176 -399h-213zM498 604h731l-21 21l-293 665l-49 166h-4l-51 -166l-293 -665z" />
<glyph unicode="B" horiz-adv-x="1611" d="M184 0v1659h760q125 0 223 -36.5t158.5 -99t91.5 -142t31 -169.5q0 -117 -44 -196t-142 -139v-5q128 -56 193 -159t65 -242q0 -220 -143.5 -345.5t-413.5 -125.5h-779zM358 184h605q186 0 271 72.5t85 214.5q0 139 -89 215t-269 76h-603l21 -21v-536zM358 946h566 q168 0 245.5 73t77.5 193q0 263 -323 263h-566l21 -21v-487z" />
<glyph unicode="C" horiz-adv-x="1607" d="M113 819q0 189 54 347t155.5 272t256 177.5t347.5 63.5q403 0 620 -254l-147 -141q-157 211 -471 211q-158 0 -278.5 -53t-192.5 -146.5t-108 -213.5t-36 -263q0 -141 34.5 -257t106 -206.5t192 -141t280.5 -50.5q315 0 471 209l145 -140q-217 -253 -618 -253 q-197 0 -351.5 60t-255 170.5t-152.5 264.5t-52 344z" />
<glyph unicode="D" horiz-adv-x="1685" d="M184 0v1659h627q135 0 246 -25.5t189 -69t137 -108t94.5 -134.5t57.5 -156.5t30 -166t8 -170.5q0 -92 -8 -171.5t-29.5 -166t-56.5 -156t-93 -133.5t-135 -107.5t-186.5 -69t-243.5 -25.5h-637zM358 184h443q104 0 187 18t142 49.5t103 79.5t70 100.5t42 120.5t21.5 133 t5.5 144t-6 143.5t-22 133t-43 121t-71.5 100.5t-104.5 79.5t-144.5 50t-189.5 18.5h-433l21 -21v-1249z" />
<glyph unicode="E" horiz-adv-x="1546" d="M184 0v1659h1219v-184h-1045l21 -21v-512l-21 -20h947v-185h-947l21 -20v-512l-21 -21h1045v-184h-1219z" />
<glyph unicode="F" horiz-adv-x="1423" d="M184 0v1659h1178v-184h-1004l21 -21v-553l-21 -20h906v-185h-906l21 -20v-676h-195z" />
<glyph unicode="G" horiz-adv-x="1812" d="M113 813q0 263 96 457.5t281.5 301.5t441.5 107q429 0 641 -249l-148 -142q-81 108 -210.5 157.5t-280.5 49.5q-309 0 -465 -180t-156 -502q0 -309 152 -479t457 -170q237 0 385.5 157t148.5 398l21 20h-564v185h715v-924h-168v244h-4q-92 -126 -230.5 -195t-305.5 -69 q-384 0 -595.5 222t-211.5 611z" />
<glyph unicode="H" horiz-adv-x="1730" d="M184 0v1659h195v-717l-21 -20h1014l-20 20v717h194v-1659h-194v717l20 20h-1014l21 -20v-717h-195zM358 737h1014h-1014z" />
<glyph unicode="I" horiz-adv-x="583" d="M195 0v1659h194v-1659h-194z" />
<glyph unicode="J" horiz-adv-x="1257" d="M0 233l139 138q62 -90 160.5 -148.5t194.5 -58.5q61 0 115.5 13t106.5 45t89.5 80.5t60.5 124t23 171.5v1061h194v-1051q0 -137 -31.5 -245.5t-86 -179.5t-131 -117.5t-160.5 -66t-182 -19.5q-146 0 -275 68t-217 185z" />
<glyph unicode="K" horiz-adv-x="1499" d="M184 0v1659h195v-1659h-195zM399 838l797 819h277l-816 -813v-4l842 -840h-285z" />
<glyph unicode="L" horiz-adv-x="1337" d="M184 0v1659h195v-1452l-21 -23h949v-184h-1123z" />
<glyph unicode="M" horiz-adv-x="1996" d="M184 0v1659h174l557 -1106l82 -195h4l82 195l555 1106h174v-1659h-194v1221h-4l-111 -265l-504 -979h-4l-510 992l-102 252h-4v-1221h-195z" />
<glyph unicode="N" horiz-adv-x="1730" d="M184 0v1659h178l865 -1147l121 -186h4v1333h194v-1659h-178l-858 1139l-127 194h-4v-1333h-195z" />
<glyph unicode="O" horiz-adv-x="1779" d="M113 819q0 190 50.5 347t146.5 271.5t244 178t335 63.5q188 0 337 -63t245 -177.5t146 -271.5t50 -348q0 -253 -88.5 -441t-265 -293t-424.5 -105q-250 0 -426.5 105.5t-263 292.5t-86.5 441zM313 819q0 -141 33 -257t100.5 -206.5t181 -141t263.5 -50.5q151 0 264 50.5 t179.5 141t99 206.5t32.5 257q0 111 -19.5 209t-63.5 184.5t-109.5 148.5t-163.5 98t-219 36t-218.5 -35t-164 -96t-111 -147t-64.5 -185t-20 -213z" />
<glyph unicode="P" horiz-adv-x="1581" d="M184 0v1659h758q258 0 402.5 -141t144.5 -371q0 -223 -146 -367.5t-403 -144.5h-582l21 -21v-614h-195zM358 819h582q172 0 260 90t88 238q0 153 -87 240.5t-259 87.5h-584l21 -21v-614z" />
<glyph unicode="Q" horiz-adv-x="1779" d="M113 829q0 254 87 444t263.5 298t425.5 108q189 0 337 -61.5t244.5 -174t146.5 -268t50 -346.5q0 -359 -170 -577l252 -254l-129 -131l-256 254q-193 -141 -475 -141q-250 0 -426.5 108t-263 297t-86.5 444zM313 829q0 -112 20 -209.5t65 -182t111.5 -144.5t163.5 -94.5 t218 -34.5q185 0 317 80l33 2l-266 264l131 131l260 -260l2 31q98 166 98 417q0 111 -19.5 208t-63.5 182t-109.5 145.5t-163 95.5t-219.5 35q-121 0 -218.5 -34t-164 -93.5t-111 -144t-64.5 -182.5t-20 -212z" />
<glyph unicode="R" horiz-adv-x="1611" d="M184 0v1659h727q115 0 215 -31t177 -90.5t121 -154t44 -214.5q0 -158 -94.5 -273.5t-236.5 -152.5v-4q63 -26 120.5 -82.5t96.5 -138.5l248 -518h-220l-206 436q-61 129 -161 188.5t-263 59.5h-394l21 -20v-664h-195zM358 868h531q177 0 278 83t101 218q0 107 -48 177 t-125.5 99.5t-183.5 29.5h-553l21 -21v-565z" />
<glyph unicode="S" horiz-adv-x="1579" d="M102 250l154 143q132 -121 262 -175t289 -54q224 0 346.5 76t122.5 198q0 89 -80 161.5t-242 115.5q-18 5 -152 41t-153 41q-97 27 -169.5 54.5t-138 65t-107 81.5t-65.5 103t-24 130q0 88 39 167t115.5 142.5t204.5 101t291 37.5q198 0 362.5 -66.5t272.5 -187.5 l-148 -141q-82 98 -205 154.5t-280 56.5q-221 0 -336 -73.5t-115 -182.5q0 -91 93 -149.5t309 -118.5q10 -3 127.5 -35.5t140.5 -38.5q236 -62 348.5 -178t112.5 -268q0 -72 -22 -138t-72 -127.5t-125 -106.5t-188.5 -72t-254.5 -27q-209 0 -400.5 68.5t-312.5 201.5z" />
<glyph unicode="T" horiz-adv-x="1464" d="M41 1475v184h1382v-184h-604l10 -21v-1454h-194v1454l10 21h-604z" />
<glyph unicode="U" horiz-adv-x="1755" d="M174 760v899h195v-897q0 -143 27 -250t86 -186.5t158.5 -120.5t238.5 -41q137 0 235.5 41t157.5 120.5t86.5 187t27.5 249.5v897h195v-899q0 -780 -702 -780q-705 0 -705 780z" />
<glyph unicode="V" horiz-adv-x="1681" d="M31 1659h219l541 -1290l51 -166h4l49 166l541 1290h215l-707 -1659h-207z" />
<glyph unicode="W" horiz-adv-x="2144" d="M51 1659h209l336 -1290l27 -166h4l28 166l340 1290h156l342 -1290l27 -166h4l26 166l338 1290h205l-442 -1659h-254l-291 1106l-31 197h-4l-31 -197l-290 -1106h-256z" />
<glyph unicode="X" horiz-adv-x="1564" d="M41 0l621 834l-615 825h246l379 -512l110 -172h4l109 172l381 512h242l-615 -828l621 -831h-246l-379 512l-113 180h-4l-116 -180l-381 -512h-244z" />
<glyph unicode="Y" horiz-adv-x="1640" d="M31 1659h245l431 -608l112 -191h4l111 191l432 608h244l-690 -963v-696h-197v696z" />
<glyph unicode="Z" horiz-adv-x="1607" d="M123 0v164l967 1167l139 139v5h-1086v184h1332v-162l-959 -1167l-143 -142v-4h1112v-184h-1362z" />
<glyph unicode="[" horiz-adv-x="571" d="M123 -389v2247h428v-150h-268v-1946h268v-151h-428z" />
<glyph unicode="\" horiz-adv-x="643" d="M-61 1761h172l594 -1863h-173z" />
<glyph unicode="]" horiz-adv-x="571" d="M20 -238h269v1946h-269v150h429v-2247h-429v151z" />
<glyph unicode="^" horiz-adv-x="1339" d="M154 850l442 809h147l443 -809h-195l-254 461l-65 143h-4l-66 -143l-254 -461h-194z" />
<glyph unicode="_" horiz-adv-x="1347" d="M-20 -195h1388v-174h-1388v174z" />
<glyph unicode="`" horiz-adv-x="1423" d="M465 1772l139 139l348 -406l-82 -82z" />
<glyph unicode="a" horiz-adv-x="1423" d="M113 375q0 84 30.5 151t76.5 110t120.5 74.5t140 47.5t158.5 24.5t153.5 10.5t145.5 2q87 0 143 -9l-20 23v29q0 80 -27.5 138.5t-77.5 91t-111.5 47.5t-137.5 15q-269 0 -406 -129l-131 129q114 96 245 137.5t292 41.5q86 0 162 -14t147 -48t121.5 -86t81 -134 t30.5 -187v-840h-188v115h-4q-156 -138 -418 -138q-81 0 -154.5 12.5t-142.5 42.5t-119 74.5t-80 113.5t-30 155zM301 375q0 -61 32.5 -106t85.5 -68.5t108.5 -34t113.5 -10.5q45 0 94.5 5t109.5 20t106.5 38.5t78 64.5t31.5 93v227l20 19q-75 6 -131 6h-10q-53 0 -83 -0.5 t-88.5 -2.5t-96 -6t-91.5 -13t-89 -21.5t-75 -32t-62.5 -44t-38 -59t-15.5 -75.5z" />
<glyph unicode="b" horiz-adv-x="1490" d="M184 0v1720h189v-587h4q154 178 403 178q150 0 265 -50t187.5 -140.5t109 -212t36.5 -269.5q0 -145 -37.5 -264.5t-110 -208t-187.5 -137.5t-263 -49q-265 0 -403 170h-4v-150h-189zM356 639q0 -105 23 -190t71.5 -151t130.5 -102t193 -36t192.5 36t129.5 102t71 151 t23 190t-23.5 192t-71.5 155t-130.5 106t-192.5 38t-192 -37.5t-130 -105.5t-71 -155t-23 -193z" />
<glyph unicode="c" horiz-adv-x="1265" d="M113 635q0 193 71 345t212 241.5t333 89.5q301 0 459 -168l-133 -133q-53 58 -138 90q-82 31 -182 30h-6q-105 -1 -188 -40.5t-135 -107.5t-78.5 -156.5t-26.5 -190.5q0 -100 24.5 -183.5t74 -150t133 -104t194.5 -37.5q214 0 344 139l133 -131q-179 -188 -479 -188 q-152 0 -270.5 49.5t-192.5 138t-111.5 206.5t-37.5 261z" />
<glyph unicode="d" horiz-adv-x="1490" d="M113 637q0 147 38 269.5t111 213t188 141t261 50.5q123 0 228 -48t175 -130h4v585h189v-1718h-189v150h-4q-138 -170 -403 -170q-148 0 -263 48.5t-187.5 136.5t-110 207.5t-37.5 264.5zM301 639q0 -105 23 -190t71.5 -151t130.5 -102t193 -36q110 0 191.5 36t130 102 t71.5 151t23 190q0 107 -22.5 193t-70.5 154.5t-130 106t-193 37.5q-109 0 -191 -38t-130.5 -106t-72.5 -155t-24 -192z" />
<glyph unicode="e" d="M113 635q0 302 164 489t450 187q150 0 266 -50.5t189.5 -142t111 -213.5t37.5 -270q0 -22 -4 -76h-1042l22 -20q26 -181 132.5 -280t297.5 -99q213 0 355 139l133 -131q-191 -188 -490 -188q-125 0 -228 32t-175.5 90.5t-122 140t-73 180t-23.5 212.5zM287 731h872 l-22 21q-24 175 -126.5 276.5t-283.5 101.5q-184 0 -288 -103t-130 -275z" />
<glyph unicode="f" horiz-adv-x="843" d="M61 1118v172h164l-10 21v16q0 186 109.5 295t302.5 109q94 0 176 -33v-176q-31 13 -84 22.5t-88 9.5q-113 0 -170.5 -60.5t-57.5 -170.5v-12l-10 -21h410v-172h-410l10 -20v-1098h-188v1098l10 20h-164z" />
<glyph unicode="g" horiz-adv-x="1490" d="M113 702q0 127 38 236.5t110 193t185 131.5t254 48q130 0 239.5 -47.5t174.5 -130.5h4v157h189v-1177q0 -267 -146 -410t-438 -143q-307 0 -526 174l135 135q73 -61 179 -96t212 -35q193 0 294 97.5t101 279.5v157h-4q-149 -170 -414 -170q-287 0 -437 161t-150 439z M301 702q0 -195 104 -307t304 -112q214 0 320 113.5t106 305.5q0 194 -111.5 311t-314.5 117q-201 0 -304.5 -118t-103.5 -310z" />
<glyph unicode="h" horiz-adv-x="1490" d="M184 0v1720h189v-592h4q72 87 181 135t233 48q133 0 234.5 -35.5t165 -100.5t95 -153.5t31.5 -198.5v-823h-189v793q0 77 -15 133.5t-53 105t-111 73.5t-181 25q-172 0 -283.5 -94.5t-111.5 -269.5v-766h-189z" />
<glyph unicode="i" horiz-adv-x="557" d="M156 1597q0 62 32 99t91 37q60 0 91 -37t31 -99t-31.5 -98.5t-90.5 -36.5q-60 0 -91.5 36.5t-31.5 98.5zM184 0v1290h189v-1290h-189z" />
<glyph unicode="j" horiz-adv-x="557" d="M-131 -227q69 -35 164 -35q72 0 111.5 46.5t39.5 135.5v1370h189v-1382q0 -172 -86 -260t-250 -88q-99 0 -168 34v179zM156 1597q0 62 32 99t91 37q60 0 91 -37t31 -99t-31.5 -98.5t-90.5 -36.5q-60 0 -91.5 36.5t-31.5 98.5z" />
<glyph unicode="k" horiz-adv-x="1300" d="M184 0v1720h189v-1720h-189zM393 664l613 626h266l-633 -628v-5l661 -657h-262z" />
<glyph unicode="l" horiz-adv-x="557" d="M184 0v1720h189v-1720h-189z" />
<glyph unicode="m" horiz-adv-x="2058" d="M184 0v1290h191v-162h2q50 83 140 133t194 50q121 0 215.5 -63t144.5 -163h4q63 102 166.5 164t220.5 62q422 0 422 -545l-2 -766h-188v717q0 56 -2 97.5t-9 87t-18.5 77.5t-31.5 62t-48 48.5t-67.5 29.5t-90.5 11q-98 0 -168 -50q-70 -52 -101 -130q-30 -76 -30 -168v-6 v-776h-190v766q0 68 -6 119.5t-23 100t-45.5 79.5t-76.5 49.5t-113 18.5q-130 0 -214.5 -101.5t-84.5 -257.5v-774h-191z" />
<glyph unicode="n" horiz-adv-x="1490" d="M184 0v1290h189v-162h4q66 84 176.5 133.5t234.5 49.5q255 0 392 -126.5t137 -361.5v-823h-189v782q0 83 -15 142t-53 108t-111 73.5t-181 24.5q-172 0 -283.5 -94.5t-111.5 -269.5v-766h-189z" />
<glyph unicode="o" d="M113 645q0 146 38.5 267t113 210.5t191 139t265.5 49.5q150 0 267 -49t191.5 -138t113 -210.5t38.5 -268.5q0 -145 -39 -266t-114 -210t-192 -139t-265 -50q-149 0 -265.5 49.5t-191 138.5t-113 210t-38.5 267zM301 645q0 -105 24.5 -191t74.5 -153t132.5 -104t190.5 -37 t190 37t131.5 104t74 153t24.5 191t-24.5 191t-74.5 153t-132.5 104t-190.5 37t-190 -37t-131.5 -103.5t-74 -153t-24.5 -191.5z" />
<glyph unicode="p" horiz-adv-x="1490" d="M184 -430v1720h189v-157h4q65 84 170 131t233 47q148 0 263 -50t187.5 -140t110 -210.5t37.5 -265.5q0 -148 -36.5 -268.5t-109 -209.5t-187.5 -138t-265 -49q-130 0 -228 41t-175 129h-4v-580h-189zM356 645q0 -106 23 -192t71 -153t130 -103.5t192 -36.5 q89 0 159.5 24.5t118.5 67.5t80 104.5t46 133t14 155.5q0 105 -23 191t-71 153t-130 104t-192 37q-89 0 -159.5 -24.5t-118.5 -68t-80 -105t-46 -133t-14 -154.5z" />
<glyph unicode="q" horiz-adv-x="1490" d="M113 645q0 145 37.5 265.5t110 210.5t187.5 140t263 50q129 0 233.5 -47t169.5 -131h4v157h189v-1720h-189v580h-4q-77 -88 -175 -129t-228 -41q-150 0 -265 49t-187.5 138t-109 209.5t-36.5 268.5zM301 645q0 -84 14 -155.5t46 -133t80 -104.5t118.5 -67.5t159.5 -24.5 q111 0 193 36.5t130 103.5t70.5 153t22.5 192q0 105 -23 190.5t-71.5 152.5t-130 104.5t-191.5 37.5t-192.5 -37t-131 -104t-71.5 -153t-23 -191z" />
<glyph unicode="r" horiz-adv-x="870" d="M184 0v1290h189v-223h4q53 114 166.5 176t244.5 62h41v-201h-61q-58 0 -112.5 -15.5t-106.5 -51t-90.5 -88t-62 -133t-23.5 -179.5v-637h-189z" />
<glyph unicode="s" horiz-adv-x="1300" d="M113 199l139 139q106 -97 202.5 -138.5t211.5 -41.5q163 0 247 53t84 135q0 66 -49 109t-176 77q-13 4 -62.5 18.5t-105.5 31t-61 18.5q-92 26 -158.5 54t-122 69t-84 98t-28.5 129t31.5 136t92 115t159.5 80.5t224 29.5q311 0 502 -209l-139 -139q-139 167 -363 167 q-156 0 -236.5 -52t-80.5 -122q0 -59 64 -101.5t221 -84.5q7 -2 98 -30t108 -33q188 -51 272.5 -138t84.5 -215q0 -74 -29 -139t-88 -119.5t-162 -86.5t-237 -32q-162 0 -309.5 54.5t-249.5 167.5z" />
<glyph unicode="t" horiz-adv-x="962" d="M61 1118v172h164l-10 21v205l188 102v-307l-10 -21h410v-172h-410l10 -20v-713q0 -112 46.5 -169.5t130.5 -57.5q68 0 121.5 22.5t107.5 73.5l133 -131q-174 -143 -373 -143q-163 0 -258.5 104.5t-95.5 292.5v721l10 20h-164z" />
<glyph unicode="u" horiz-adv-x="1474" d="M174 487v803h188v-792q0 -78 14 -134t50.5 -105t108.5 -74t180 -25q171 0 279 94t108 270v766h188v-1290h-188v162h-4q-159 -182 -404 -182q-266 0 -393 132t-127 375z" />
<glyph unicode="v" horiz-adv-x="1345" d="M20 1290h211l385 -923l56 -164h4l53 164l385 923h211l-549 -1290h-207z" />
<glyph unicode="w" horiz-adv-x="1828" d="M31 1290h200l271 -942l24 -145h4l21 145l285 942h157l285 -942l25 -145h4l20 145l275 942h196l-379 -1290h-221l-256 817l-24 164h-5l-26 -164l-258 -817h-221z" />
<glyph unicode="x" horiz-adv-x="1273" d="M41 0l481 649l-477 641h236l286 -395l70 -113h4l68 113l288 395h232l-475 -643l479 -647h-234l-288 395l-72 121h-4l-72 -121l-289 -395h-233z" />
<glyph unicode="y" horiz-adv-x="1355" d="M31 1290h211l401 -923l55 -164h4l54 164l358 923h211l-584 -1429q-58 -141 -155 -221t-217 -80q-146 0 -242 51v178q91 -51 217 -51q83 0 146.5 65.5t115.5 198.5z" />
<glyph unicode="z" horiz-adv-x="1345" d="M123 0v150l723 845l115 111v4h-824v178h1080v-143l-736 -846l-116 -117v-4h858v-178h-1100z" />
<glyph unicode="{" horiz-adv-x="675" d="M82 637v197q80 14 114.5 64t34.5 136v484q0 68 10 122.5t35 104t73 81t118 40.5q19 3 66 4.5t85 1.5h37v-146q-112 0 -169 -20t-75 -57.5t-18 -110.5v-502q0 -120 -30.5 -184.5t-122.5 -116.5q38 -21 63.5 -39.5t43 -41.5t26.5 -41t13.5 -50.5t5.5 -58t1 -74.5v-498 q0 -73 18 -110.5t75 -57.5t169 -20v-145q-145 0 -188 6q-70 9 -118 40.5t-73 81t-35 104t-10 122.5v465q0 45 -6 79t-22 64t-46 49.5t-75 26.5z" />
<glyph unicode="|" horiz-adv-x="643" d="M236 -102v1863h172v-1863h-172z" />
<glyph unicode="}" horiz-adv-x="675" d="M20 -256q112 0 169.5 20t75.5 57.5t18 110.5v498q0 49 1 74.5t5.5 58t13.5 50.5t26.5 41t43 41.5t63.5 39.5q-92 52 -122.5 116.5t-30.5 184.5v502q0 73 -18 110.5t-75.5 57.5t-169.5 20v146q148 0 191 -6q56 -7 98 -30t67.5 -54.5t41 -76t21 -89t5.5 -98.5v-484 q0 -85 35.5 -135t114.5 -65v-197q-59 -10 -93.5 -42t-45.5 -74t-11 -103v-465q0 -54 -5.5 -98.5t-21 -89t-41 -76t-67.5 -54.5t-98 -30q-19 -3 -67 -4.5t-86 -1.5h-38v145z" />
<glyph unicode="~" horiz-adv-x="1181" d="M61 600q27 92 117.5 167t202.5 75q52 0 115.5 -26.5t112.5 -58.5t107 -58.5t101 -26.5q71 0 122.5 48t72.5 122l108 -107q-33 -103 -123.5 -172t-199.5 -69q-51 0 -113.5 26.5t-111 58.5t-107.5 58.5t-105 26.5q-65 0 -116.5 -47t-73.5 -123z" />
<glyph horiz-adv-x="2048" />
<glyph unicode="&#xa1;" horiz-adv-x="595" d="M143 1509q0 77 41 123.5t115 46.5q73 0 113.5 -46.5t40.5 -123.5q0 -76 -40.5 -122t-113.5 -46q-75 0 -115.5 45.5t-40.5 122.5zM180 0l51 1223h134l51 -1223h-236z" />
<glyph unicode="&#xa2;" horiz-adv-x="1265" d="M113 819q0 193 71 345t212 241.5t333 89.5q41 0 55 -4l-6 18l33 170h160l-37 -192l-14 -12q168 -40 268 -148l-133 -133q-57 63 -170 102l8 -20l-178 -914l-15 -18h27q214 0 344 139l133 -131q-179 -188 -479 -188h-57l6 -14l-33 -170h-160l37 192l14 14 q-209 55 -314 224t-105 409zM301 819q0 -163 64.5 -283.5t201.5 -168.5l-6 22l176 909l13 17h-21q-105 0 -188 -39.5t-134.5 -108.5t-78.5 -157.5t-27 -190.5z" />
<glyph unicode="&#xa3;" horiz-adv-x="1456" d="M113 0v174q61 31 101.5 60t75.5 73.5t49.5 98.5t14 131.5t-21.5 177.5l10 22h-195v183h148l-16 20q-46 166 -46 277q0 97 28 175t77 131t118 88.5t148 51.5t170 16q166 0 307 -72t232 -182l-142 -139q-160 209 -403 209q-334 0 -334 -270q0 -112 41 -283l-10 -22h487 v-183h-438l16 -22q79 -400 -159 -527v-4h917v-184h-1175z" />
<glyph unicode="&#xa4;" horiz-adv-x="1239" d="M113 1210l125 121l141 -141q109 72 242 72q129 0 235 -72l145 141l125 -121l-141 -147q72 -119 72 -238q0 -128 -72 -241l139 -142l-123 -123l-145 142q-107 -70 -235 -70q-136 0 -242 72l-141 -141l-123 122l141 144q-72 109 -72 237q0 127 72 236zM356 825 q0 -110 76 -186q78 -78 189 -78q112 0 190 78q76 76 76 186t-78 191q-78 78 -188 78q-112 0 -189 -80q-76 -79 -76 -189z" />
<glyph unicode="&#xa5;" horiz-adv-x="1640" d="M51 1659h246l430 -608l92 -158h4l90 158l433 608h243l-530 -737l-25 -29l396 8v-180h-523l11 -21v-151l-11 -21h523v-180h-523l11 -18v-330h-195v328l10 20h-518v180h518l-10 21v151l10 21h-518v180h391l-24 21z" />
<glyph unicode="&#xa6;" horiz-adv-x="643" d="M236 -102v839h172v-839h-172zM236 922v839h172v-839h-172z" />
<glyph unicode="&#xa7;" horiz-adv-x="1294" d="M90 748q0 49 14.5 95.5t37 83.5t57.5 74.5t67.5 65t75.5 59.5q-109 109 -109 226q0 102 61 177t159.5 111.5t218.5 36.5q133 0 263.5 -59.5t227.5 -157.5l-129 -129q-69 76 -166 124t-196 48q-101 0 -166.5 -40t-65.5 -115q0 -54 42 -105t110 -94t149.5 -87t163 -93 t149.5 -102.5t110 -124.5t42 -150q0 -117 -61 -209.5t-168 -173.5q65 -68 94 -125t29 -139q0 -89 -35 -159t-95 -112.5t-135 -64t-161 -21.5q-138 0 -276 54.5t-234 150.5l129 129q67 -73 171 -113t210 -40q217 0 217 178q0 53 -47 112q-45 54 -125 109t-160.5 97t-166.5 95 t-151.5 105t-108 125.5t-42.5 157.5zM283 766q0 -74 53.5 -131.5t136.5 -106.5l375 -221q34 31 56.5 53.5t50.5 57t42.5 70.5t14.5 71q0 41 -18 78.5t-54 69.5t-63 51.5t-72 46.5l-350 213q-36 -31 -58 -53t-52.5 -57t-46 -71t-15.5 -71z" />
<glyph unicode="&#xa8;" horiz-adv-x="1423" d="M330 1585q0 62 32.5 98.5t92.5 36.5q59 0 91 -37t32 -98q0 -63 -32 -99t-91 -36q-60 0 -92.5 36t-32.5 99zM811 1585q0 62 32.5 98.5t92.5 36.5q59 0 91 -37t32 -98q0 -63 -32 -99t-91 -36q-60 0 -92.5 36t-32.5 99z" />
<glyph unicode="&#xa9;" horiz-adv-x="1943" d="M123 821q0 230 114 425t309.5 309t426.5 114q172 0 329 -67.5t270.5 -181t181 -270.5t67.5 -329q0 -173 -67.5 -330.5t-181 -272t-270.5 -182t-329 -67.5q-173 0 -330.5 67.5t-271 182t-181 272t-67.5 330.5zM283 821q0 -140 54.5 -270t147 -226.5t220.5 -154t268 -57.5 q139 0 267 57.5t220 154t146.5 226.5t54.5 270q0 139 -55 269t-147 226t-220 154t-266 58q-139 0 -267 -58t-220.5 -154t-147.5 -226t-55 -269zM455 811q0 249 138 408t380 159q250 0 387 -143l-117 -117q-95 106 -270 103q-115 -1 -197 -57.5t-120 -147.5t-38 -205 q0 -82 20 -151.5t61 -124.5t110 -86t160 -31q176 0 286 119l117 -115q-152 -162 -403 -162q-127 0 -226.5 42t-161.5 116.5t-94 174t-32 218.5z" />
<glyph unicode="&#xaa;" horiz-adv-x="931" d="M61 1061q0 57 21 102.5t51.5 74.5t80.5 50t93 31t105 16t100 7t94 1q61 0 86 -2l-16 23v18q0 83 -60 122.5t-159 39.5q-171 0 -264 -90l-99 100q81 69 168.5 97t194.5 28q72 0 133.5 -16t114.5 -50.5t83.5 -98t30.5 -150.5v-557h-143v76h-2q-101 -90 -260 -90 q-68 0 -127.5 14t-112 43.5t-83 83.5t-30.5 127zM203 1061q0 -48 34.5 -79.5t79.5 -42.5t97 -11q39 0 79.5 6t84 19.5t71 41.5t27.5 66v133l16 20q-13 0 -42.5 1.5t-35.5 1.5q-60 0 -127 -3q-71 -3 -135 -18q-149 -34 -149 -135z" />
<glyph unicode="&#xab;" horiz-adv-x="1257" d="M113 522l413 414l127 -127l-186 -188l-121 -97v-4l121 -98l186 -186l-127 -127zM604 522l414 414l127 -127l-187 -188l-120 -97v-4l120 -98l187 -186l-127 -127z" />
<glyph unicode="&#xac;" horiz-adv-x="1193" d="M61 571v187h1072v-656h-189v449l21 20h-904z" />
<glyph unicode="&#xad;" horiz-adv-x="808" d="M61 573v185h687v-185h-687z" />
<glyph unicode="&#xae;" horiz-adv-x="1943" d="M123 819q0 231 114 426.5t309 309.5t425 114q173 0 330.5 -67.5t271 -181t181 -271t67.5 -330.5q0 -230 -114 -425.5t-309.5 -310t-426.5 -114.5q-172 0 -329 67.5t-270.5 181.5t-181 271.5t-67.5 329.5zM283 819q0 -186 92 -348.5t251.5 -260t344.5 -97.5 q140 0 268 57.5t220.5 153.5t147 226t54.5 269q0 140 -55 270.5t-147.5 226.5t-220.5 154t-267 58q-138 0 -266 -58t-220 -154t-147 -226.5t-55 -270.5zM588 332v975h426q141 0 236.5 -77t95.5 -222q0 -82 -42 -146t-110 -98q51 -41 80 -107l156 -325h-179l-121 258 q-30 65 -76.5 94t-127.5 29h-199l18 -19v-362h-157zM727 866h274q89 0 137 39.5t48 102.5q0 145 -172 145h-287l18 -18v-250z" />
<glyph unicode="&#xaf;" horiz-adv-x="1452" d="M348 1520v137h809v-137h-809z" />
<glyph unicode="&#xb0;" horiz-adv-x="876" d="M61 1294q0 171 91 278t260 107q171 0 261.5 -106t90.5 -279q0 -169 -91 -276t-259 -107q-171 0 -262 106t-91 277zM207 1294q0 -109 52 -174t155 -65t153.5 64.5t50.5 174.5q0 111 -50.5 176.5t-153.5 65.5q-104 0 -155.5 -65.5t-51.5 -176.5z" />
<glyph unicode="&#xb1;" horiz-adv-x="1382" d="M184 143v185h1014v-185h-1014zM184 881v184h426l-10 20v437h184v-437l-10 -20h424v-184h-424l10 -21v-434h-184v434l10 21h-426z" />
<glyph unicode="&#xb2;" horiz-adv-x="862" d="M113 739v168q0 107 56 197.5t169 130.5l111 39q84 30 114.5 61.5t30.5 71.5q0 48 -35.5 80.5t-120.5 32.5q-64 0 -114 -28.5t-99 -94.5l-110 112q130 160 323 160q153 0 232.5 -76.5t79.5 -185.5q0 -190 -232 -272l-131 -48q-60 -23 -91.5 -70t-31.5 -108v-4l-12 -16h496 v-150h-635z" />
<glyph unicode="&#xb3;" horiz-adv-x="931" d="M113 887l110 110q51 -64 106.5 -93.5t131.5 -29.5q104 0 155.5 42.5t51.5 91.5q0 57 -45.5 94.5t-139.5 46.5l-151 4v143q118 3 147 7q91 9 130.5 45.5t39.5 78.5t-42.5 73.5t-143.5 31.5q-74 0 -129 -28t-103 -89l-110 113q134 151 344 151q165 0 250.5 -73.5 t85.5 -182.5q0 -119 -129 -190v-4q67 -26 107 -82t40 -135q0 -53 -21.5 -102.5t-63.5 -91t-113 -66.5t-160 -25q-210 0 -348 160z" />
<glyph unicode="&#xb4;" horiz-adv-x="1423" d="M506 1505l348 406l139 -139l-405 -349z" />
<glyph unicode="&#xb5;" horiz-adv-x="1472" d="M166 -430v1720h190v-772q0 -167 98.5 -262.5t252.5 -95.5q175 0 281 95.5t106 268.5v766h188v-1290h-188v152h-4q-75 -87 -175.5 -129.5t-209.5 -42.5q-209 0 -345 172h-4v-582h-190z" />
<glyph unicode="&#xb6;" horiz-adv-x="1269" d="M0 1147q0 138 68.5 256t186.5 187t257 69h614v-170h-129l11 -14v-1846h-174v1846l10 14h-166l10 -14v-1846h-176v992l12 14h-18q-139 0 -255.5 68.5t-183.5 186.5t-67 257z" />
<glyph unicode="&#xb7;" horiz-adv-x="575" d="M123 831q0 76 40 122t113 46q75 0 115.5 -45.5t40.5 -122.5t-41 -123t-115 -46q-73 0 -113 46t-40 123z" />
<glyph unicode="&#xb8;" horiz-adv-x="1265" d="M530 -303l127 127q46 46 51.5 72t-20.5 49l-63 63h129l55 -51q42 -39 42.5 -86t-44.5 -94l-178 -178z" />
<glyph unicode="&#xb9;" horiz-adv-x="577" d="M61 1421l238 238h125v-932h-152v637l13 84h-2l-50 -68l-63 -65z" />
<glyph unicode="&#xba;" horiz-adv-x="985" d="M61 1237q0 198 105 320t301 122q197 0 301 -121t104 -321q0 -198 -105 -321t-300 -123q-196 0 -301 122.5t-105 321.5zM203 1237q0 -138 66 -222.5t198 -84.5q133 0 198.5 83.5t65.5 223.5q0 138 -66 221.5t-198 83.5q-133 0 -198.5 -83.5t-65.5 -221.5z" />
<glyph unicode="&#xbb;" horiz-adv-x="1257" d="M113 236l186 186l121 98v4l-121 97l-186 188l127 127l413 -414l-413 -413zM604 236l187 186l120 98v4l-120 97l-187 188l127 127l414 -414l-414 -413z" />
<glyph unicode="&#xbc;" horiz-adv-x="1558" d="M61 1421l238 238h125v-932h-152v637l13 84h-2l-50 -68l-63 -65zM289 -20l594 1699h164l-596 -1699h-162zM717 205v119l491 606h138v-561l-9 -15h109v-149h-111l11 -10v-197h-154v197l8 10h-483zM907 352l293 2l-8 15v268l6 80h-4l-47 -78l-186 -229l-54 -54v-4z" />
<glyph unicode="&#xbd;" horiz-adv-x="1603" d="M61 1421l238 238h125v-932h-152v637l13 84h-2l-50 -68l-63 -65zM289 -20l594 1699h164l-596 -1699h-162zM856 -2v168q0 108 56 198t169 130l111 41q84 29 114.5 60t30.5 73q0 46 -35 78t-120 32q-64 0 -114 -28.5t-99 -94.5l-111 115q133 160 324 160q152 0 230.5 -76.5 t78.5 -185.5q0 -96 -55 -163.5t-174 -109.5l-132 -49q-60 -21 -91 -68t-31 -108v-6l-13 -14h496v-152h-635z" />
<glyph unicode="&#xbe;" horiz-adv-x="1884" d="M113 887l110 110q51 -64 106.5 -93.5t131.5 -29.5q104 0 155.5 42.5t51.5 91.5q0 57 -45.5 94.5t-139.5 46.5l-151 4v143q118 3 147 7q91 9 130.5 45.5t39.5 78.5t-42.5 73.5t-143.5 31.5q-74 0 -129 -28t-103 -89l-110 113q134 151 344 151q165 0 250.5 -73.5 t85.5 -182.5q0 -119 -129 -190v-4q67 -26 107 -82t40 -135q0 -53 -21.5 -102.5t-63.5 -91t-113 -66.5t-160 -25q-210 0 -348 160zM614 -20l596 1699h162l-594 -1699h-164zM1044 205v119l490 606h137v-561l-8 -15h109v-149h-109l8 -10v-197h-153v197l8 10h-482zM1233 352 l293 2l-8 15v268l6 80h-4l-45 -78l-187 -229l-55 -54v-4z" />
<glyph unicode="&#xbf;" horiz-adv-x="1308" d="M113 410q0 132 77 234t201 151l78 30q85 33 126 73.5t55 96.5t14 160v68h194v-86q0 -79 -7 -135.5t-27 -112t-56 -96.5t-94.5 -79.5t-141.5 -70.5l-47 -18q-92 -36 -132 -87.5t-40 -127.5q0 -91 94 -168.5t230 -77.5q135 0 234 52.5t178 158.5l147 -142 q-211 -253 -561 -253q-96 0 -181 25.5t-146.5 68t-106 98t-66.5 116.5t-22 122zM606 1509q0 77 41 123.5t115 46.5q73 0 113 -46.5t40 -123.5q0 -76 -40 -122t-113 -46q-75 0 -115.5 45.5t-40.5 122.5z" />
<glyph unicode="&#xc0;" horiz-adv-x="1726" d="M31 0l729 1659h207l729 -1659h-213l-176 399l10 21h-907l10 -21l-176 -399h-213zM498 604h731l-21 21l-293 665l-49 166h-4l-51 -166l-293 -665zM602 2140l139 139l349 -405l-82 -82z" />
<glyph unicode="&#xc1;" horiz-adv-x="1726" d="M31 0l729 1659h207l729 -1659h-213l-176 399l10 21h-907l10 -21l-176 -399h-213zM498 604h731l-21 21l-293 665l-49 166h-4l-51 -166l-293 -665zM639 1872l348 405l139 -139l-405 -348z" />
<glyph unicode="&#xc2;" horiz-adv-x="1726" d="M31 0l729 1659h207l729 -1659h-213l-176 399l10 21h-907l10 -21l-176 -399h-213zM496 1866l366 364h4l367 -364l-80 -78l-289 231h-4l-285 -231zM498 604h731l-21 21l-293 665l-49 166h-4l-51 -166l-293 -665z" />
<glyph unicode="&#xc3;" horiz-adv-x="1726" d="M31 0l729 1659h207l729 -1659h-213l-176 399l10 21h-907l10 -21l-176 -399h-213zM385 1888q24 83 106.5 151t182.5 68q47 0 105 -24t102.5 -52.5t97.5 -52.5t92 -24q64 0 110 42.5t66 110.5l99 -96q-30 -94 -112.5 -156.5t-180.5 -62.5q-47 0 -103.5 24t-100.5 53t-98 53 t-96 24q-59 0 -105 -42t-67 -112zM498 604h731l-21 21l-293 665l-49 166h-4l-51 -166l-293 -665z" />
<glyph unicode="&#xc4;" horiz-adv-x="1726" d="M31 0l729 1659h207l729 -1659h-213l-176 399l10 21h-907l10 -21l-176 -399h-213zM498 604h731l-21 21l-293 665l-49 166h-4l-51 -166l-293 -665zM504 1978q0 62 32 99t91 37q60 0 91.5 -37t31.5 -99q0 -61 -32 -98t-91 -37q-60 0 -91.5 36.5t-31.5 98.5zM985 1978 q0 62 32 99t91 37q60 0 91.5 -37t31.5 -99q0 -61 -32 -98t-91 -37q-60 0 -91.5 36.5t-31.5 98.5z" />
<glyph unicode="&#xc5;" horiz-adv-x="1726" d="M31 0l729 1659h207l729 -1659h-213l-176 399l10 21h-907l10 -21l-176 -399h-213zM498 604h731l-21 21l-293 665l-49 166h-4l-51 -166l-293 -665zM643 2019q0 101 56.5 164.5t162.5 63.5q109 0 166 -63t57 -165q0 -100 -58 -163.5t-163 -63.5q-108 0 -164.5 63t-56.5 164z M752 2019q0 -57 28 -90t84 -33q55 0 84 33.5t29 89.5t-29 89.5t-84 33.5q-56 0 -84 -33t-28 -90z" />
<glyph unicode="&#xc6;" horiz-adv-x="2097" d="M31 0l729 1659h1194v-184h-746l13 -21v-512l-21 -20h674v-185h-674l21 -20v-512l-21 -21h754v-184h-926v399l10 21h-628l10 -21l-176 -399h-213zM498 604h553l-21 21v829l12 21h-155v-21l-369 -829z" />
<glyph unicode="&#xc7;" horiz-adv-x="1607" d="M113 819q0 189 54 347t155.5 272t256 177.5t347.5 63.5q403 0 620 -254l-147 -141q-157 211 -471 211q-158 0 -278.5 -53t-192.5 -146.5t-108 -213.5t-36 -263q0 -141 34.5 -257t106 -206.5t192 -141t280.5 -50.5q315 0 471 209l145 -140q-199 -231 -549 -251l27 -25 q42 -39 42.5 -86t-44.5 -94l-178 -178l-99 98l127 127q46 46 51.5 72t-20.5 49l-37 37q-182 9 -324.5 73t-235.5 174t-141 259t-48 331z" />
<glyph unicode="&#xc8;" horiz-adv-x="1546" d="M184 0v1659h1219v-184h-1045l21 -21v-512l-21 -20h947v-185h-947l21 -20v-512l-21 -21h1045v-184h-1219zM557 2140l139 139l348 -405l-81 -82z" />
<glyph unicode="&#xc9;" horiz-adv-x="1546" d="M184 0v1659h1219v-184h-1045l21 -21v-512l-21 -20h947v-185h-947l21 -20v-512l-21 -21h1045v-184h-1219zM629 1872l348 405l139 -139l-405 -348z" />
<glyph unicode="&#xca;" horiz-adv-x="1546" d="M184 0v1659h1219v-184h-1045l21 -21v-512l-21 -20h947v-185h-947l21 -20v-512l-21 -21h1045v-184h-1219zM428 1866l367 364h4l366 -364l-80 -78l-288 231h-4l-285 -231z" />
<glyph unicode="&#xcb;" horiz-adv-x="1546" d="M184 0v1659h1219v-184h-1045l21 -21v-512l-21 -20h947v-185h-947l21 -20v-512l-21 -21h1045v-184h-1219zM442 1978q0 62 32 99t91 37q60 0 91.5 -37t31.5 -99q0 -61 -32 -98t-91 -37q-60 0 -91.5 36.5t-31.5 98.5zM924 1978q0 62 32 99t91 37q60 0 91 -37t31 -99 t-31.5 -98.5t-90.5 -36.5q-60 0 -91.5 36.5t-31.5 98.5z" />
<glyph unicode="&#xcc;" horiz-adv-x="583" d="M29 2140l139 139l348 -405l-82 -82zM195 0v1659h194v-1659h-194z" />
<glyph unicode="&#xcd;" horiz-adv-x="583" d="M66 1872l348 405l139 -139l-406 -348zM195 0v1659h194v-1659h-194z" />
<glyph unicode="&#xce;" horiz-adv-x="583" d="M-72 1866l367 364h4l367 -364l-80 -78l-289 231h-4l-285 -231zM195 0v1659h194v-1659h-194z" />
<glyph unicode="&#xcf;" horiz-adv-x="583" d="M-72 1978q0 62 32 99t91 37q60 0 91.5 -37t31.5 -99q0 -61 -32 -98t-91 -37q-60 0 -91.5 36.5t-31.5 98.5zM195 0v1659h194v-1659h-194zM410 1978q0 62 31.5 99t90.5 37q60 0 91.5 -37t31.5 -99q0 -61 -32 -98t-91 -37q-60 0 -91 36.5t-31 98.5z" />
<glyph unicode="&#xd0;" horiz-adv-x="1685" d="M51 737v185h144l-11 20v717h195h432q135 0 246 -25.5t189 -69t137 -108t94.5 -134.5t57.5 -156.5t30 -166t8 -170.5q0 -92 -8 -171.5t-29.5 -166t-56.5 -156t-93 -133.5t-135 -107.5t-186.5 -69t-243.5 -25.5h-637v717l11 20h-144zM358 184h443q104 0 187 18t142 49.5 t103 79.5t70 100.5t42 120.5t21.5 133t5.5 144t-6 143.5t-22 133t-43 121t-71.5 100.5t-104.5 79.5t-144.5 50t-189.5 18.5h-433l21 -21v-512l-10 -20h409v-185h-409l10 -20v-512z" />
<glyph unicode="&#xd1;" horiz-adv-x="1730" d="M184 0v1659h178l865 -1147l121 -186h4v1333h194v-1659h-178l-858 1139l-127 194h-4v-1333h-195zM391 1888q24 83 106.5 151t182.5 68q47 0 105 -24t102.5 -52.5t97.5 -52.5t92 -24q64 0 110 42.5t66 110.5l99 -96q-30 -94 -112.5 -156.5t-180.5 -62.5q-47 0 -103.5 24 t-100.5 53t-97.5 53t-95.5 24q-59 0 -106 -42t-67 -112z" />
<glyph unicode="&#xd2;" horiz-adv-x="1779" d="M113 819q0 190 50.5 347t146.5 271.5t244 178t335 63.5q188 0 337 -63t245 -177.5t146 -271.5t50 -348q0 -253 -88.5 -441t-265 -293t-424.5 -105q-250 0 -426.5 105.5t-263 292.5t-86.5 441zM313 819q0 -141 33 -257t100.5 -206.5t181 -141t263.5 -50.5q151 0 264 50.5 t179.5 141t99 206.5t32.5 257q0 111 -19.5 209t-63.5 184.5t-109.5 148.5t-163.5 98t-219 36t-218.5 -35t-164 -96t-111 -147t-64.5 -185t-20 -213zM625 2140l139 139l348 -405l-82 -82z" />
<glyph unicode="&#xd3;" horiz-adv-x="1779" d="M113 819q0 190 50.5 347t146.5 271.5t244 178t335 63.5q188 0 337 -63t245 -177.5t146 -271.5t50 -348q0 -253 -88.5 -441t-265 -293t-424.5 -105q-250 0 -426.5 105.5t-263 292.5t-86.5 441zM313 819q0 -141 33 -257t100.5 -206.5t181 -141t263.5 -50.5q151 0 264 50.5 t179.5 141t99 206.5t32.5 257q0 111 -19.5 209t-63.5 184.5t-109.5 148.5t-163.5 98t-219 36t-218.5 -35t-164 -96t-111 -147t-64.5 -185t-20 -213zM664 1872l348 405l139 -139l-406 -348z" />
<glyph unicode="&#xd4;" horiz-adv-x="1779" d="M113 819q0 190 50.5 347t146.5 271.5t244 178t335 63.5q188 0 337 -63t245 -177.5t146 -271.5t50 -348q0 -253 -88.5 -441t-265 -293t-424.5 -105q-250 0 -426.5 105.5t-263 292.5t-86.5 441zM313 819q0 -141 33 -257t100.5 -206.5t181 -141t263.5 -50.5q151 0 264 50.5 t179.5 141t99 206.5t32.5 257q0 111 -19.5 209t-63.5 184.5t-109.5 148.5t-163.5 98t-219 36t-218.5 -35t-164 -96t-111 -147t-64.5 -185t-20 -213zM528 1866l367 364h4l367 -364l-80 -78l-289 231h-4l-285 -231z" />
<glyph unicode="&#xd5;" horiz-adv-x="1779" d="M113 819q0 190 50.5 347t146.5 271.5t244 178t335 63.5q188 0 337 -63t245 -177.5t146 -271.5t50 -348q0 -253 -88.5 -441t-265 -293t-424.5 -105q-250 0 -426.5 105.5t-263 292.5t-86.5 441zM313 819q0 -141 33 -257t100.5 -206.5t181 -141t263.5 -50.5q151 0 264 50.5 t179.5 141t99 206.5t32.5 257q0 111 -19.5 209t-63.5 184.5t-109.5 148.5t-163.5 98t-219 36t-218.5 -35t-164 -96t-111 -147t-64.5 -185t-20 -213zM408 1888q24 83 106 151t182 68q47 0 105 -24t103 -52.5t98 -52.5t92 -24q64 0 110 42.5t66 110.5l98 -96 q-30 -94 -112.5 -156.5t-180.5 -62.5q-47 0 -103.5 24t-100.5 53t-97.5 53t-95.5 24q-59 0 -105 -42t-67 -112z" />
<glyph unicode="&#xd6;" horiz-adv-x="1779" d="M113 819q0 190 50.5 347t146.5 271.5t244 178t335 63.5q188 0 337 -63t245 -177.5t146 -271.5t50 -348q0 -253 -88.5 -441t-265 -293t-424.5 -105q-250 0 -426.5 105.5t-263 292.5t-86.5 441zM313 819q0 -141 33 -257t100.5 -206.5t181 -141t263.5 -50.5q151 0 264 50.5 t179.5 141t99 206.5t32.5 257q0 111 -19.5 209t-63.5 184.5t-109.5 148.5t-163.5 98t-219 36t-218.5 -35t-164 -96t-111 -147t-64.5 -185t-20 -213zM524 1978q0 62 32 99t91 37q60 0 91.5 -37t31.5 -99q0 -61 -32 -98t-91 -37q-60 0 -91.5 36.5t-31.5 98.5zM1006 1978 q0 62 31.5 99t90.5 37q60 0 91.5 -37t31.5 -99q0 -61 -32 -98t-91 -37q-60 0 -91 36.5t-31 98.5z" />
<glyph unicode="&#xd7;" horiz-adv-x="1241" d="M154 494l350 342l-19 6l-331 323l131 131l321 -329l8 -21l342 350l131 -131l-350 -342l19 -6l331 -323l-131 -132l-323 332l-6 19l-342 -351z" />
<glyph unicode="&#xd8;" horiz-adv-x="1779" d="M113 819q0 254 89 446.5t267.5 303t427.5 110.5q218 0 395 -96v12l82 142l86 -49l-84 -148l-10 -4q149 -113 225 -297t76 -420q0 -253 -88.5 -441t-265 -293t-424.5 -105q-214 0 -377 77l2 -10l-104 -182l-88 51l104 180l10 4q-160 106 -241.5 290.5t-81.5 428.5z M313 819q0 -378 222 -551v15l651 1130l12 4q-131 78 -307 78q-121 0 -218.5 -35t-164 -96t-111 -147t-64.5 -185t-20 -213zM608 223q121 -59 283 -59q151 0 264 50.5t179.5 141t99 206.5t32.5 257q0 172 -48.5 314.5t-149.5 232.5v-12l-650 -1125z" />
<glyph unicode="&#xd9;" horiz-adv-x="1755" d="M174 760v899h195v-897q0 -143 27 -250t86 -186.5t158.5 -120.5t238.5 -41q137 0 235.5 41t157.5 120.5t86.5 187t27.5 249.5v897h195v-899q0 -780 -702 -780q-705 0 -705 780zM610 2140l140 139l348 -405l-82 -82z" />
<glyph unicode="&#xda;" horiz-adv-x="1755" d="M174 760v899h195v-897q0 -143 27 -250t86 -186.5t158.5 -120.5t238.5 -41q137 0 235.5 41t157.5 120.5t86.5 187t27.5 249.5v897h195v-899q0 -780 -702 -780q-705 0 -705 780zM649 1872l348 405l140 -139l-406 -348z" />
<glyph unicode="&#xdb;" horiz-adv-x="1755" d="M174 760v899h195v-897q0 -143 27 -250t86 -186.5t158.5 -120.5t238.5 -41q137 0 235.5 41t157.5 120.5t86.5 187t27.5 249.5v897h195v-899q0 -780 -702 -780q-705 0 -705 780zM512 1866l367 364h4l366 -364l-80 -78l-288 231h-4l-285 -231z" />
<glyph unicode="&#xdc;" horiz-adv-x="1755" d="M174 760v899h195v-897q0 -143 27 -250t86 -186.5t158.5 -120.5t238.5 -41q137 0 235.5 41t157.5 120.5t86.5 187t27.5 249.5v897h195v-899q0 -780 -702 -780q-705 0 -705 780zM514 1978q0 62 32 99t91 37q60 0 91.5 -37t31.5 -99q0 -61 -32 -98t-91 -37q-60 0 -91.5 36.5 t-31.5 98.5zM995 1978q0 62 32 99t91 37q60 0 91.5 -37t31.5 -99q0 -61 -32 -98t-91 -37q-60 0 -91.5 36.5t-31.5 98.5z" />
<glyph unicode="&#xdd;" horiz-adv-x="1640" d="M31 1659h245l431 -608l112 -191h4l111 191l432 608h244l-690 -963v-696h-197v696zM598 1872l348 405l139 -139l-405 -348z" />
<glyph unicode="&#xde;" horiz-adv-x="1581" d="M184 0v1659h193v-299l-21 -21h586q258 0 402.5 -141t144.5 -371q0 -223 -146 -367.5t-403 -144.5h-582l21 -20v-295h-195zM358 500h582q172 0 260 89.5t88 237.5q0 153 -87 240.5t-259 87.5h-584l21 -20v-615z" />
<glyph unicode="&#xdf;" horiz-adv-x="1394" d="M184 0v1327q0 112 33 192t95.5 125.5t143 66t185.5 20.5q136 0 254 -55.5t191 -159t73 -232.5q0 -222 -182 -328v-4q140 -50 222.5 -172.5t82.5 -287.5q0 -222 -143.5 -368.5t-358.5 -146.5q-174 0 -301 43v185q78 -28 137 -38.5t146 -10.5q148 0 240 90t92 243t-96 249 t-248 96h-265v174l189 -2q137 0 216 69.5t79 198.5q0 131 -95 205.5t-235 74.5q-147 0 -206.5 -63.5t-59.5 -208.5v-1282h-189z" />
<glyph unicode="&#xe0;" horiz-adv-x="1423" d="M113 375q0 84 30.5 151t76.5 110t120.5 74.5t140 47.5t158.5 24.5t153.5 10.5t145.5 2q87 0 143 -9l-20 23v29q0 80 -27.5 138.5t-77.5 91t-111.5 47.5t-137.5 15q-269 0 -406 -129l-131 129q114 96 245 137.5t292 41.5q86 0 162 -14t147 -48t121.5 -86t81 -134 t30.5 -187v-840h-188v115h-4q-156 -138 -418 -138q-81 0 -154.5 12.5t-142.5 42.5t-119 74.5t-80 113.5t-30 155zM301 375q0 -61 32.5 -106t85.5 -68.5t108.5 -34t113.5 -10.5q45 0 94.5 5t109.5 20t106.5 38.5t78 64.5t31.5 93v227l20 19q-75 6 -131 6h-10q-53 0 -83 -0.5 t-88.5 -2.5t-96 -6t-91.5 -13t-89 -21.5t-75 -32t-62.5 -44t-38 -59t-15.5 -75.5zM465 1772l139 139l348 -406l-82 -82z" />
<glyph unicode="&#xe1;" horiz-adv-x="1423" d="M113 375q0 84 30.5 151t76.5 110t120.5 74.5t140 47.5t158.5 24.5t153.5 10.5t145.5 2q87 0 143 -9l-20 23v29q0 80 -27.5 138.5t-77.5 91t-111.5 47.5t-137.5 15q-269 0 -406 -129l-131 129q114 96 245 137.5t292 41.5q86 0 162 -14t147 -48t121.5 -86t81 -134 t30.5 -187v-840h-188v115h-4q-156 -138 -418 -138q-81 0 -154.5 12.5t-142.5 42.5t-119 74.5t-80 113.5t-30 155zM301 375q0 -61 32.5 -106t85.5 -68.5t108.5 -34t113.5 -10.5q45 0 94.5 5t109.5 19.5t106.5 38t78 64.5t31.5 94v227l20 19q-75 6 -131 6h-10q-53 0 -83 -0.5 t-88.5 -2.5t-96 -6t-91.5 -13t-89 -21.5t-75 -32t-62.5 -44t-38 -59t-15.5 -75.5zM506 1505l348 406l139 -139l-405 -349z" />
<glyph unicode="&#xe2;" horiz-adv-x="1423" d="M113 375q0 84 30.5 151t76.5 110t120.5 74.5t140 47.5t158.5 24.5t153.5 10.5t145.5 2q87 0 143 -9l-20 23v29q0 80 -27.5 138.5t-77.5 91t-111.5 47.5t-137.5 15q-269 0 -406 -129l-131 129q114 96 245 137.5t292 41.5q86 0 162 -14t147 -48t121.5 -86t81 -134 t30.5 -187v-840h-188v115h-4q-156 -138 -418 -138q-81 0 -154.5 12.5t-142.5 42.5t-119 74.5t-80 113.5t-30 155zM301 375q0 -61 32.5 -106t85.5 -68.5t108.5 -34t113.5 -10.5q45 0 94.5 5t109.5 19.5t106.5 38t78 64.5t31.5 94v227l20 19q-75 6 -131 6h-10q-53 0 -83 -0.5 t-88.5 -2.5t-96 -6t-91.5 -13t-89 -21.5t-75 -32t-62.5 -44t-38 -59t-15.5 -75.5zM319 1505l367 365h4l367 -365l-80 -80l-287 234h-4l-287 -234z" />
<glyph unicode="&#xe3;" horiz-adv-x="1423" d="M113 375q0 84 30.5 151t76.5 110t120.5 74.5t140 47.5t158.5 24.5t153.5 10.5t145.5 2q87 0 143 -9l-20 23v29q0 80 -27.5 138.5t-77.5 91t-111.5 47.5t-137.5 15q-269 0 -406 -129l-131 129q114 96 245 137.5t292 41.5q86 0 162 -14t147 -48t121.5 -86t81 -134 t30.5 -187v-840h-188v115h-4q-156 -138 -418 -138q-81 0 -154.5 12.5t-142.5 42.5t-119 74.5t-80 113.5t-30 155zM205 1556q25 83 108 151.5t183 68.5q47 0 104.5 -24t102 -53t97 -53t91.5 -24q64 0 111 43.5t65 110.5l100 -97q-30 -94 -112.5 -156.5t-182.5 -62.5 q-46 0 -102 24t-100 53t-97.5 53t-95.5 24q-60 0 -107 -42.5t-67 -113.5zM301 375q0 -61 32.5 -106t85.5 -68.5t108.5 -34t113.5 -10.5q45 0 94.5 5t109.5 19.5t106.5 38t78 64.5t31.5 94v227l20 19q-75 6 -131 6h-10q-53 0 -83 -0.5t-88.5 -2.5t-96 -6t-91.5 -13t-89 -21.5 t-75 -32t-62.5 -44t-38 -59t-15.5 -75.5z" />
<glyph unicode="&#xe4;" horiz-adv-x="1423" d="M113 375q0 84 30.5 151t76.5 110t120.5 74.5t140 47.5t158.5 24.5t153.5 10.5t145.5 2q87 0 143 -9l-20 23v29q0 80 -27.5 138.5t-77.5 91t-111.5 47.5t-137.5 15q-269 0 -406 -129l-131 129q114 96 245 137.5t292 41.5q86 0 162 -14t147 -48t121.5 -86t81 -134 t30.5 -187v-840h-188v115h-4q-156 -138 -418 -138q-81 0 -154.5 12.5t-142.5 42.5t-119 74.5t-80 113.5t-30 155zM301 375q0 -61 32.5 -106t85.5 -68.5t108.5 -34t113.5 -10.5q45 0 94.5 5t109.5 19.5t106.5 38t78 64.5t31.5 94v227l20 19q-75 6 -131 6h-10q-53 0 -83 -0.5 t-88.5 -2.5t-96 -6t-91.5 -13t-89 -21.5t-75 -32t-62.5 -44t-38 -59t-15.5 -75.5zM330 1585q0 62 32.5 98.5t92.5 36.5q59 0 91 -37t32 -98q0 -63 -32 -99t-91 -36q-60 0 -92.5 36t-32.5 99zM811 1585q0 62 32.5 98.5t92.5 36.5q59 0 91 -37t32 -98q0 -63 -32 -99t-91 -36 q-60 0 -92.5 36t-32.5 99z" />
<glyph unicode="&#xe5;" horiz-adv-x="1423" d="M113 375q0 84 30.5 151t76.5 110t120.5 74.5t140 47.5t158.5 24.5t153.5 10.5t145.5 2q87 0 143 -9l-20 23v29q0 80 -27.5 138.5t-77.5 91t-111.5 47.5t-137.5 15q-269 0 -406 -129l-131 129q114 96 245 137.5t292 41.5q86 0 162 -14t147 -48t121.5 -86t81 -134 t30.5 -187v-840h-188v115h-4q-156 -138 -418 -138q-81 0 -154.5 12.5t-142.5 42.5t-119 74.5t-80 113.5t-30 155zM301 375q0 -61 32.5 -106t85.5 -68.5t108.5 -34t113.5 -10.5q45 0 94.5 5t109.5 19.5t106.5 38t78 64.5t31.5 94v227l20 19q-75 6 -131 6h-10q-53 0 -83 -0.5 t-88.5 -2.5t-96 -6t-91.5 -13t-89 -21.5t-75 -32t-62.5 -44t-38 -59t-15.5 -75.5zM475 1653q0 101 56.5 164t162.5 63q109 0 166.5 -62.5t57.5 -164.5q0 -100 -58.5 -164t-163.5 -64q-108 0 -164.5 63t-56.5 165zM584 1653q0 -57 28 -90t84 -33t84.5 33.5t28.5 89.5 t-29 89.5t-84 33.5q-56 0 -84 -33t-28 -90z" />
<glyph unicode="&#xe6;" horiz-adv-x="2381" d="M113 375q0 84 30.5 151t76.5 110t120.5 74.5t140 47.5t158.5 24.5t153.5 10.5t145.5 2q81 0 137 -9l-14 23v29q0 80 -27.5 138.5t-77.5 91t-111.5 47.5t-137.5 15q-269 0 -406 -129l-131 129q114 96 245 137.5t292 41.5q162 0 286.5 -54.5t192.5 -169.5h4 q81 105 204 165.5t271 60.5q150 0 266 -50.5t189.5 -142t111 -213.5t37.5 -270q0 -22 -4 -76h-1038l18 -20q26 -181 132.5 -280t297.5 -99q213 0 355 139l133 -131q-191 -188 -490 -188q-320 0 -489 208h-4q-48 -64 -107 -107t-130.5 -65t-142 -30.5t-161.5 -8.5 q-81 0 -154.5 12.5t-142.5 42.5t-119 74.5t-80 113.5t-30 155zM301 375q0 -61 32.5 -106t85.5 -68.5t108.5 -34t113.5 -10.5q45 0 94.5 5t109.5 19.5t106.5 38t78 64.5t31.5 94v227l14 19q-75 6 -125 6h-10q-53 0 -83 -0.5t-88.5 -2.5t-96 -6t-91.5 -13t-89 -21.5t-75 -32 t-62.5 -44t-38 -59t-15.5 -75.5zM1231 731h874l-30 21q-24 175 -126.5 276.5t-283.5 101.5q-184 0 -288 -103t-130 -275z" />
<glyph unicode="&#xe7;" horiz-adv-x="1265" d="M113 635q0 193 71 345t212 241.5t333 89.5q301 0 459 -168l-133 -133q-53 58 -138 89.5t-188 30.5q-105 -1 -188 -40.5t-135 -107.5t-78.5 -156.5t-26.5 -190.5q0 -100 24.5 -183.5t74 -150t133 -104t194.5 -37.5q214 0 344 139l133 -131q-162 -168 -416 -186v-5l21 -20 q41 -39 42 -86t-42 -92l-180 -180l-99 98l129 129q42 42 49 66t-20 53l-37 37q-134 12 -237.5 66t-169 141t-98.5 199.5t-33 246.5z" />
<glyph unicode="&#xe8;" d="M113 635q0 302 164 489t450 187q150 0 266 -50.5t189.5 -142t111 -213.5t37.5 -270q0 -22 -4 -76h-1042l22 -20q26 -181 132.5 -280t297.5 -99q213 0 355 139l133 -131q-191 -188 -490 -188q-125 0 -228 32t-175.5 90.5t-122 140t-73 180t-23.5 212.5zM287 731h872 l-22 21q-24 175 -126.5 276.5t-283.5 101.5q-184 0 -288 -103t-130 -275zM455 1772l139 139l348 -406l-82 -82z" />
<glyph unicode="&#xe9;" d="M113 635q0 302 164 489t450 187q150 0 266 -50.5t189.5 -142t111 -213.5t37.5 -270q0 -22 -4 -76h-1042l22 -20q26 -181 132.5 -280t297.5 -99q213 0 355 139l133 -131q-191 -188 -490 -188q-125 0 -228 32t-175.5 90.5t-122 140t-73 180t-23.5 212.5zM287 731h872 l-22 21q-24 175 -126.5 276.5t-283.5 101.5q-184 0 -288 -103t-130 -275zM516 1505l348 406l140 -139l-406 -349z" />
<glyph unicode="&#xea;" d="M113 635q0 302 164 489t450 187q150 0 266 -50.5t189.5 -142t111 -213.5t37.5 -270q0 -22 -4 -76h-1042l22 -20q26 -181 132.5 -280t297.5 -99q213 0 355 139l133 -131q-191 -188 -490 -188q-125 0 -228 32t-175.5 90.5t-122 140t-73 180t-23.5 212.5zM287 731h872 l-22 21q-24 175 -126.5 276.5t-283.5 101.5q-184 0 -288 -103t-130 -275zM365 1505l366 365h4l367 -365l-80 -80l-287 234h-4l-287 -234z" />
<glyph unicode="&#xeb;" d="M113 635q0 302 164 489t450 187q150 0 266 -50.5t189.5 -142t111 -213.5t37.5 -270q0 -22 -4 -76h-1042l22 -20q26 -181 132.5 -280t297.5 -99q213 0 355 139l133 -131q-191 -188 -490 -188q-125 0 -228 32t-175.5 90.5t-122 140t-73 180t-23.5 212.5zM287 731h872 l-22 21q-24 175 -126.5 276.5t-283.5 101.5q-184 0 -288 -103t-130 -275zM365 1585q0 62 32 98.5t92 36.5q59 0 91 -37t32 -98q0 -63 -32 -99t-91 -36q-60 0 -92 36t-32 99zM846 1585q0 62 32.5 98.5t92.5 36.5q59 0 91 -37t32 -98q0 -63 -32 -99t-91 -36q-60 0 -92.5 36 t-32.5 99z" />
<glyph unicode="&#xec;" horiz-adv-x="557" d="M18 1772l140 139l348 -406l-82 -82zM184 0v1290h189v-1290h-189z" />
<glyph unicode="&#xed;" horiz-adv-x="557" d="M53 1505l348 406l140 -139l-406 -349zM184 0v1290h189v-1290h-189z" />
<glyph unicode="&#xee;" horiz-adv-x="557" d="M-88 1505l367 365h4l366 -365l-80 -80l-286 234h-4l-287 -234zM184 0v1290h189v-1290h-189z" />
<glyph unicode="&#xef;" horiz-adv-x="557" d="M-84 1585q0 62 32.5 98.5t92.5 36.5q59 0 91 -37t32 -98q0 -63 -32 -99t-91 -36q-60 0 -92.5 36t-32.5 99zM184 0v1290h189v-1290h-189zM397 1585q0 62 32.5 98.5t92.5 36.5q59 0 91 -37t32 -98q0 -63 -32 -99t-91 -36q-60 0 -92.5 36t-32.5 99z" />
<glyph unicode="&#xf0;" horiz-adv-x="1382" d="M113 612q0 138 36.5 253t107 200t181.5 132.5t252 47.5q55 0 117 -10l-113 172v25l-178 -109l-86 131l176 107l-16 8l-109 164h213l45 -70l2 -21l152 93l86 -131l-152 -93l19 -10l325 -495q99 -150 99 -394q0 -138 -37 -253t-108 -200t-182.5 -132t-252.5 -47t-252 47 t-181.5 131.5t-107 199.5t-36.5 254zM295 612q0 -98 23.5 -180t70 -145t124 -98t179.5 -35t179 35t123.5 98t69.5 144.5t23 180.5t-23 180.5t-69.5 144.5t-124 97.5t-180.5 34.5t-180 -34.5t-123.5 -97.5t-69 -144.5t-22.5 -180.5z" />
<glyph unicode="&#xf1;" horiz-adv-x="1490" d="M184 0v1290h189v-162h4q66 84 176.5 133.5t234.5 49.5q255 0 392 -126.5t137 -361.5v-823h-189v782q0 83 -15 142t-53 108t-111 73.5t-181 24.5q-172 0 -283.5 -94.5t-111.5 -269.5v-766h-189zM291 1556q25 83 108 151.5t183 68.5q47 0 104.5 -24t102 -53t97 -53 t91.5 -24q64 0 111 43.5t65 110.5l100 -97q-30 -94 -112.5 -156.5t-182.5 -62.5q-46 0 -102 24t-100 53t-97.5 53t-95.5 24q-60 0 -107 -42.5t-67 -113.5z" />
<glyph unicode="&#xf2;" d="M113 645q0 146 38.5 267t113 210.5t191 139t265.5 49.5q150 0 267 -49t191.5 -138t113 -210.5t38.5 -268.5q0 -145 -39 -266t-114 -210t-192 -139t-265 -50q-149 0 -265.5 49.5t-191 138.5t-113 210t-38.5 267zM301 645q0 -105 24.5 -191t74.5 -153t132.5 -104t190.5 -37 t190 37t131.5 104t74 153t24.5 191t-24.5 191t-74.5 153t-132.5 104t-190.5 37t-190 -37t-131.5 -103.5t-74 -153t-24.5 -191.5zM440 1772l140 139l348 -406l-82 -82z" />
<glyph unicode="&#xf3;" d="M113 645q0 146 38.5 267t113 210.5t191 139t265.5 49.5q150 0 267 -49t191.5 -138t113 -210.5t38.5 -268.5q0 -145 -39 -266t-114 -210t-192 -139t-265 -50q-149 0 -265.5 49.5t-191 138.5t-113 210t-38.5 267zM301 645q0 -105 24.5 -191t74.5 -153t132.5 -104t190.5 -37 t190 37t131.5 104t74 153t24.5 191t-24.5 191t-74.5 153t-132.5 104t-190.5 37t-190 -37t-131.5 -103.5t-74 -153t-24.5 -191.5zM516 1505l348 406l140 -139l-406 -349z" />
<glyph unicode="&#xf4;" d="M113 645q0 146 38.5 267t113 210.5t191 139t265.5 49.5q150 0 267 -49t191.5 -138t113 -210.5t38.5 -268.5q0 -145 -39 -266t-114 -210t-192 -139t-265 -50q-149 0 -265.5 49.5t-191 138.5t-113 210t-38.5 267zM301 645q0 -105 24.5 -191t74.5 -153t132.5 -104t190.5 -37 t190 37t131.5 104t74 153t24.5 191t-24.5 191t-74.5 153t-132.5 104t-190.5 37t-190 -37t-131.5 -103.5t-74 -153t-24.5 -191.5zM356 1505l367 365h4l367 -365l-80 -80l-287 234h-4l-287 -234z" />
<glyph unicode="&#xf5;" d="M113 645q0 146 38.5 267t113 210.5t191 139t265.5 49.5q150 0 267 -49t191.5 -138t113 -210.5t38.5 -268.5q0 -145 -39 -266t-114 -210t-192 -139t-265 -50q-149 0 -265.5 49.5t-191 138.5t-113 210t-38.5 267zM244 1556q25 83 108 151.5t183 68.5q47 0 104.5 -24 t102 -53t97 -53t91.5 -24q64 0 111 43.5t65 110.5l100 -97q-30 -94 -112.5 -156.5t-182.5 -62.5q-46 0 -102 24t-100 53t-97.5 53t-95.5 24q-60 0 -107 -42.5t-67 -113.5zM301 645q0 -105 24.5 -191t74.5 -153t132.5 -104t190.5 -37t190 37t131.5 104t74 153t24.5 191 t-24.5 191t-74.5 153t-132.5 104t-190.5 37t-190 -37t-131.5 -103.5t-74 -153t-24.5 -191.5z" />
<glyph unicode="&#xf6;" d="M113 645q0 146 38.5 267t113 210.5t191 139t265.5 49.5q150 0 267 -49t191.5 -138t113 -210.5t38.5 -268.5q0 -145 -39 -266t-114 -210t-192 -139t-265 -50q-149 0 -265.5 49.5t-191 138.5t-113 210t-38.5 267zM301 645q0 -105 24.5 -191t74.5 -153t132.5 -104t190.5 -37 t190 37t131.5 104t74 153t24.5 191t-24.5 191t-74.5 153t-132.5 104t-190.5 37t-190 -37t-131.5 -103.5t-74 -153t-24.5 -191.5zM358 1585q0 62 32.5 98.5t92.5 36.5q59 0 91 -37t32 -98q0 -63 -32 -99t-91 -36q-60 0 -92.5 36t-32.5 99zM840 1585q0 62 32.5 98.5t92.5 36.5 q59 0 90.5 -36.5t31.5 -98.5q0 -63 -31.5 -99t-90.5 -36q-60 0 -92.5 36t-32.5 99z" />
<glyph unicode="&#xf7;" horiz-adv-x="1382" d="M184 737v185h1014v-185h-1014zM539 385q0 76 40 122t113 46q75 0 115.5 -45.5t40.5 -122.5t-41 -123.5t-115 -46.5q-73 0 -113 46.5t-40 123.5zM539 1276q0 76 40 122t113 46q75 0 115.5 -45.5t40.5 -122.5t-41 -123.5t-115 -46.5q-73 0 -113 46.5t-40 123.5z" />
<glyph unicode="&#xf8;" d="M113 645q0 146 38.5 267t113 210.5t191 139t265.5 49.5q171 0 299 -64v10l86 148l86 -51l-86 -150l-8 -4q115 -86 174 -229.5t59 -325.5q0 -145 -39 -266t-114 -210t-192 -139t-265 -50q-171 0 -293 61v-12l-84 -148l-86 49l84 150l12 4q-121 89 -181 233t-60 328z M301 645q0 -264 148 -395l2 14l469 815l10 6q-92 45 -209 45q-108 0 -190 -37t-131.5 -103.5t-74 -153t-24.5 -191.5zM522 201q84 -41 201 -41q108 0 190 37t131.5 104t74 153t24.5 191q0 257 -142 391v-12l-469 -815z" />
<glyph unicode="&#xf9;" horiz-adv-x="1474" d="M174 487v803h188v-792q0 -78 14 -134t50.5 -105t108.5 -74t180 -25q171 0 279 94t108 270v766h188v-1290h-188v162h-4q-159 -182 -404 -182q-266 0 -393 132t-127 375zM455 1772l139 139l348 -406l-82 -82z" />
<glyph unicode="&#xfa;" horiz-adv-x="1474" d="M174 487v803h188v-792q0 -78 14 -134t50.5 -105t108.5 -74t180 -25q171 0 279 94t108 270v766h188v-1290h-188v162h-4q-159 -182 -404 -182q-266 0 -393 132t-127 375zM532 1505l349 406l139 -139l-406 -349z" />
<glyph unicode="&#xfb;" horiz-adv-x="1474" d="M174 487v803h188v-792q0 -78 14 -134t50.5 -105t108.5 -74t180 -25q171 0 279 94t108 270v766h188v-1290h-188v162h-4q-159 -182 -404 -182q-266 0 -393 132t-127 375zM358 1505l367 365h4l367 -365l-80 -80l-287 234h-4l-287 -234z" />
<glyph unicode="&#xfc;" horiz-adv-x="1474" d="M174 487v803h188v-792q0 -78 14 -134t50.5 -105t108.5 -74t180 -25q171 0 279 94t108 270v766h188v-1290h-188v162h-4q-159 -182 -404 -182q-266 0 -393 132t-127 375zM369 1585q0 62 32.5 98.5t92.5 36.5q59 0 90.5 -36.5t31.5 -98.5q0 -63 -31.5 -99t-90.5 -36 q-60 0 -92.5 36t-32.5 99zM850 1585q0 62 32.5 98.5t92.5 36.5q59 0 91 -37t32 -98q0 -63 -32 -99t-91 -36q-60 0 -92.5 36t-32.5 99z" />
<glyph unicode="&#xfd;" horiz-adv-x="1355" d="M31 1290h211l401 -923l55 -164h4l54 164l358 923h211l-584 -1429q-58 -141 -155 -221t-217 -80q-146 0 -242 51v178q91 -51 217 -51q83 0 146.5 65.5t115.5 198.5zM465 1505l348 406l139 -139l-405 -349z" />
<glyph unicode="&#xfe;" horiz-adv-x="1490" d="M184 -430v2150h189v-587h4q65 84 170 131t233 47q148 0 263 -50t187.5 -140t110 -210.5t37.5 -265.5q0 -148 -36.5 -268.5t-109 -209.5t-187.5 -138t-265 -49q-130 0 -228 41t-175 129h-4v-580h-189zM356 645q0 -106 23 -192t71 -153t130 -103.5t192 -36.5 q89 0 159.5 24.5t118.5 67.5t80 104.5t46 133t14 155.5q0 105 -23 191t-71 153t-130 104t-192 37q-89 0 -159.5 -24.5t-118.5 -68t-80 -105t-46 -133t-14 -154.5z" />
<glyph unicode="&#xff;" horiz-adv-x="1355" d="M31 1290h211l401 -923l55 -164h4l54 164l358 923h211l-584 -1429q-58 -141 -155 -221t-217 -80q-146 0 -242 51v178q91 -51 217 -51q83 0 146.5 65.5t115.5 198.5zM305 1585q0 62 32.5 98.5t92.5 36.5q59 0 91 -37t32 -98q0 -63 -32 -99t-91 -36q-60 0 -92.5 36t-32.5 99 zM786 1585q0 62 32.5 98.5t92.5 36.5q59 0 91 -37t32 -98q0 -63 -32 -99t-91 -36q-60 0 -92.5 36t-32.5 99z" />
<glyph unicode="&#x152;" horiz-adv-x="2236" d="M113 819q0 190 40.5 347t118.5 271.5t197.5 178t271.5 63.5q124 0 228.5 -42.5t177.5 -123.5h4v146h942v-184h-764l17 -21v-512l-17 -20h686v-185h-686l17 -20v-512l-17 -21h764v-184h-942v141h-4q-72 -80 -177.5 -120.5t-228.5 -40.5q-202 0 -345 105.5t-213 292.5 t-70 441zM313 819q0 -140 25.5 -257t76 -207t134 -140.5t192.5 -50.5q110 0 194.5 50.5t135 141t75.5 207t25 256.5q0 139 -25 258t-75 214t-134.5 149.5t-195.5 54.5q-109 0 -192.5 -53t-134 -146.5t-76 -213.5t-25.5 -263z" />
<glyph unicode="&#x153;" horiz-adv-x="2461" d="M113 645q0 146 38.5 267t113 210.5t191 139t265.5 49.5q358 0 512 -267h4q167 267 508 267q150 0 266 -50.5t189.5 -142t111 -213.5t37.5 -270q0 -22 -4 -76h-1042l22 -20q26 -181 132.5 -280t297.5 -99q212 0 354 139l134 -131q-191 -188 -490 -188q-183 0 -315 66.5 t-207 191.5h-4q-73 -124 -201 -191t-305 -67q-149 0 -265.5 49.5t-191 138.5t-113 210t-38.5 267zM301 645q0 -105 24.5 -191t74.5 -153t132.5 -104t190.5 -37t190 37t131.5 104t74 153t24.5 191t-24.5 191t-74.5 153t-132.5 104t-190.5 37t-190 -37t-131.5 -103.5t-74 -153 t-24.5 -191.5zM1305 731h872l-23 21q-25 175 -126.5 276.5t-282.5 101.5q-184 0 -288 -103t-130 -275z" />
<glyph unicode="&#x178;" horiz-adv-x="1640" d="M31 1659h245l431 -608l112 -191h4l111 191l432 608h244l-690 -963v-696h-197v696zM455 1978q0 62 32 99t91 37q60 0 91 -37t31 -99t-31.5 -98.5t-90.5 -36.5q-60 0 -91.5 36.5t-31.5 98.5zM936 1978q0 62 32 99t91 37q60 0 91.5 -37t31.5 -99q0 -61 -32 -98t-91 -37 q-60 0 -91.5 36.5t-31.5 98.5z" />
<glyph unicode="&#x2c6;" horiz-adv-x="1423" d="M319 1505l367 365h4l367 -365l-80 -80l-287 234h-4l-287 -234z" />
<glyph unicode="&#x2dc;" horiz-adv-x="1423" d="M205 1556q25 83 108 151.5t183 68.5q47 0 104.5 -24t102 -53t97 -53t91.5 -24q64 0 111 43.5t65 110.5l100 -97q-30 -94 -112.5 -156.5t-182.5 -62.5q-46 0 -102 24t-100 53t-97.5 53t-95.5 24q-60 0 -107 -42.5t-67 -113.5z" />
<glyph unicode="&#x2000;" horiz-adv-x="1139" />
<glyph unicode="&#x2001;" horiz-adv-x="2279" />
<glyph unicode="&#x2002;" horiz-adv-x="1139" />
<glyph unicode="&#x2003;" horiz-adv-x="2279" />
<glyph unicode="&#x2004;" horiz-adv-x="759" />
<glyph unicode="&#x2005;" horiz-adv-x="569" />
<glyph unicode="&#x2006;" horiz-adv-x="379" />
<glyph unicode="&#x2007;" horiz-adv-x="379" />
<glyph unicode="&#x2008;" horiz-adv-x="284" />
<glyph unicode="&#x2009;" horiz-adv-x="455" />
<glyph unicode="&#x200a;" horiz-adv-x="126" />
<glyph unicode="&#x2010;" horiz-adv-x="808" d="M61 573v185h687v-185h-687z" />
<glyph unicode="&#x2011;" horiz-adv-x="808" d="M61 573v185h687v-185h-687z" />
<glyph unicode="&#x2012;" horiz-adv-x="808" d="M61 573v185h687v-185h-687z" />
<glyph unicode="&#x2013;" horiz-adv-x="1257" d="M61 573v185h1135v-185h-1135z" />
<glyph unicode="&#x2014;" horiz-adv-x="1820" d="M61 573v185h1698v-185h-1698z" />
<glyph unicode="&#x2018;" horiz-adv-x="481" d="M92 1217q0 41 23 100l159 373l115 -48l-106 -247l-25 -21q60 0 95.5 -44t35.5 -113q0 -74 -37.5 -118t-107.5 -44q-72 0 -112 44t-40 118z" />
<glyph unicode="&#x2019;" horiz-adv-x="481" d="M92 1092l107 249l26 19q-61 0 -97 45t-36 115q0 72 39 115.5t109 43.5q71 0 110 -43.5t39 -115.5q0 -54 -22 -103l-160 -373z" />
<glyph unicode="&#x201a;" horiz-adv-x="481" d="M92 145q0 72 39 116t109 44q71 0 110 -44t39 -116q0 -53 -22 -102l-160 -373l-115 47l107 250l26 19q-61 0 -97 44.5t-36 114.5z" />
<glyph unicode="&#x201c;" horiz-adv-x="860" d="M92 1217q0 41 23 100l159 373l115 -48l-106 -247l-25 -21q60 0 95.5 -44t35.5 -113q0 -74 -37.5 -118t-107.5 -44q-72 0 -112 44t-40 118zM471 1217q0 41 23 100l159 373l115 -48l-106 -247l-25 -21q60 0 95.5 -44t35.5 -113q0 -74 -37.5 -118t-107.5 -44q-72 0 -112 44 t-40 118z" />
<glyph unicode="&#x201d;" horiz-adv-x="860" d="M92 1092l107 249l26 19q-61 0 -97 45t-36 115q0 72 39 115.5t109 43.5q71 0 110 -43.5t39 -115.5q0 -54 -22 -103l-160 -373zM471 1092l107 249l26 19q-61 0 -97 45t-36 115q0 72 38.5 115.5t108.5 43.5q71 0 110.5 -43.5t39.5 -115.5q0 -52 -23 -103l-159 -373z" />
<glyph unicode="&#x201e;" horiz-adv-x="860" d="M92 145q0 72 39 116t109 44q71 0 110 -44t39 -116q0 -53 -22 -102l-160 -373l-115 47l107 250l26 19q-61 0 -97 44.5t-36 114.5zM471 145q0 72 38.5 116t108.5 44q71 0 110.5 -44t39.5 -116q0 -51 -23 -102l-159 -373l-115 47l107 250l26 19q-61 0 -97 44.5t-36 114.5z " />
<glyph unicode="&#x2022;" horiz-adv-x="737" d="M0 829q0 114 81 195.5t195 81.5q115 0 196 -81.5t81 -195.5q0 -116 -81 -197t-196 -81q-114 0 -195 81.5t-81 196.5z" />
<glyph unicode="&#x2026;" horiz-adv-x="1726" d="M123 141q0 72 38.5 116t108.5 44t108 -43.5t38 -116.5t-38.5 -117t-107.5 -44q-71 0 -109 43.5t-38 117.5zM707 141q0 72 38.5 116t108.5 44t107.5 -43.5t37.5 -116.5q0 -74 -38 -117.5t-107 -43.5q-71 0 -109 43.5t-38 117.5zM1290 141q0 72 39 116t109 44t107.5 -43.5 t37.5 -116.5q0 -74 -38 -117.5t-107 -43.5q-71 0 -109.5 43.5t-38.5 117.5z" />
<glyph unicode="&#x202f;" horiz-adv-x="455" />
<glyph unicode="&#x2039;" horiz-adv-x="765" d="M113 522l413 414l127 -127l-186 -188l-121 -97v-4l121 -98l186 -186l-127 -127z" />
<glyph unicode="&#x203a;" horiz-adv-x="765" d="M113 236l186 186l121 98v4l-121 97l-186 188l127 127l413 -414l-413 -413z" />
<glyph unicode="&#x205f;" horiz-adv-x="569" />
<glyph unicode="&#x20ac;" horiz-adv-x="1533" d="M82 553v184h145l-10 21q-2 20 -2 61q0 55 2 82l12 21h-147v184h174l-8 20q60 256 225.5 404.5t407.5 148.5q165 0 296 -66t214 -188l-140 -141q-62 103 -151 157t-219 54q-162 0 -271.5 -100.5t-154.5 -268.5l-15 -20h619v-184h-653l14 -21q-4 -54 -4 -82q0 -10 1 -30.5 t1 -30.5l-12 -21h653v-184h-623l13 -21q43 -169 152.5 -268.5t277.5 -99.5q246 0 372 209l138 -140q-84 -121 -215.5 -187t-294.5 -66q-251 0 -416.5 146.5t-220.5 405.5l8 21h-168z" />
<glyph unicode="&#x2122;" horiz-adv-x="1703" d="M61 1565v92h693v-92h-303l6 -11v-727h-99v727l7 11h-304zM829 827v830h89l278 -553l39 -96h2l41 96l278 553h86v-830h-96v611h-2l-55 -131l-252 -490h-2l-254 496l-51 125h-2v-611h-99z" />
<glyph unicode="&#xfb01;" horiz-adv-x="1400" d="M61 1118v172h164l-10 21v16q0 189 111 296.5t301 107.5q92 0 176 -33v-176q-33 13 -84 22.5t-88 9.5q-228 0 -228 -243l-10 -21h824v-1290h-189v1118h-635l10 -20v-1098h-188v1098l10 20h-164zM999 1597q0 61 32 98.5t91 37.5t91 -37.5t32 -98.5t-31.5 -98t-91.5 -37 t-91.5 37t-31.5 98z" />
<glyph unicode="&#xfb02;" horiz-adv-x="1400" d="M61 1118v172h164l-10 21v16q0 185 108.5 288t303.5 103h590v-1718h-189v1542h-397q-228 0 -228 -219v-12l-10 -21h410v-172h-410l10 -20v-1098h-188v1098l10 20h-164z" />
</font>
</defs>
</svg>
